<svg width="184" height="171" viewBox="0 0 184 171" fill="none" xmlns="http://www.w3.org/2000/svg">
<g id="Antenna 1">
<g id="antenna-fill">
<path fill-rule="evenodd" clip-rule="evenodd" d="M70.5494 157.652H70.3567C70.29 158.172 70.1937 158.688 70.0975 159.203C69.9611 159.933 69.8249 160.662 69.7733 161.403C77.791 161.42 85.8105 161.408 93.8283 161.368C120.808 161.44 147.79 161.323 174.769 161.021C174.664 159.842 174.573 158.648 174.717 157.5C173.492 156.053 172.143 154.667 170.806 153.293C170.22 152.69 169.635 152.089 169.065 151.487C165.81 147.992 162.525 144.527 159.207 141.093C159.14 140.047 159.15 138.995 159.161 137.944C159.17 137.049 159.18 136.153 159.141 135.26C155.905 135.309 152.667 135.324 149.429 135.305L149.343 135.099C146.767 128.964 144.179 122.8 141.83 116.572C140.63 116.506 139.405 116.523 138.188 116.539C137.646 116.547 137.107 116.554 136.571 116.554C136.806 115.8 137.049 115.044 137.292 114.287C138 112.088 138.712 109.874 139.227 107.641C139.999 104.303 139.803 101.207 137.958 98.2265C139.921 95.3809 142.555 88.9233 142.414 85.5134C142.395 85.0441 142.281 84.5448 141.895 84.2392C141.275 83.7475 140.268 83.5848 139.322 83.4319C138.829 83.3521 138.352 83.2751 137.956 83.1554C136.827 82.8148 135.671 82.237 134.693 81.5757C133.225 80.5832 132.747 79.3403 132.233 78.0054C131.969 77.3211 131.696 76.6126 131.276 75.9013C130.4 74.4184 129.235 73.2745 127.994 72.1022C128.477 71.2054 129.009 70.3282 129.541 69.451C129.941 68.7912 130.341 68.1313 130.721 67.4632C132.175 64.8497 133.613 62.2263 135.037 59.5945C135.274 59.1644 135.519 58.7334 135.765 58.3008C136.429 57.1309 137.1 55.9489 137.643 54.7384C138.392 53.0711 138.839 51.1279 139.271 49.2484C139.438 48.5206 139.603 47.8024 139.783 47.1135C140.045 46.1059 140.325 45.0889 140.606 44.0659C141.439 41.0303 142.288 37.9418 142.758 34.888C143.114 32.5713 143.173 30.1307 143.232 27.7358C143.252 26.8887 143.273 26.0473 143.306 25.2192C143.375 23.5017 143.472 21.7853 143.569 20.0689C143.681 18.0672 143.794 16.0655 143.863 14.0624L143.834 14.0326C142.314 12.4634 140.969 11.0758 138.822 10.4287C129.516 10.0012 107.369 22.4788 98.6915 27.6673C97.1646 28.5805 95.6681 29.5433 94.1718 30.5058C92.5488 31.5499 90.9263 32.5937 89.2659 33.5738C85.5723 33.2837 81.8688 32.86 78.1691 32.4368C75.9904 32.1875 73.813 31.9384 71.6398 31.7168C70.4699 31.5978 69.2261 31.4904 67.9505 31.3803C64.342 31.0689 60.478 30.7354 57.3062 30.0519C56.8729 29.7293 56.5279 29.3481 56.1829 28.9669C55.7046 28.4385 55.2265 27.9102 54.5139 27.5387C53.2341 26.8724 51.7615 27.1312 50.4419 27.547C49.6473 27.2445 48.996 26.7676 48.3592 26.3013C47.2456 25.4858 46.1764 24.7029 44.4634 24.942C43.6856 25.0438 42.9825 25.4596 42.5172 26.0942C41.8307 27.0193 41.6429 28.2434 41.839 29.3639C42.0534 30.5963 42.9177 32.6737 43.9748 33.4252C43.9652 33.4336 43.9556 33.442 43.9461 33.4503C43.8989 33.4914 43.8522 33.5322 43.8136 33.5821C43.2701 34.2818 43.1022 35.6044 43.2285 36.4594C43.4512 37.9623 44.6479 40.0347 45.8945 40.9431C45.8871 40.9537 45.8795 40.9637 45.8719 40.9737C45.859 40.9908 45.8461 41.0077 45.8346 41.0266C45.587 41.4758 43.9482 69.0329 44.2324 70.0282C43.9287 70.1721 43.6498 70.4216 43.3958 70.649C43.3787 70.6642 43.3617 70.6794 43.3449 70.6945C34.9614 78.1757 11.543 101.09 11.0045 112.119C10.9696 112.847 11.0278 113.688 11.5347 114.251C11.7075 114.757 14.322 117.496 14.8455 117.8C16.3498 118.269 18.7091 118.557 20.7863 118.81C21.6284 118.912 22.4241 119.009 23.0976 119.111C24.086 119.259 25.1524 119.442 26.2505 119.631C28.9565 120.097 31.8547 120.595 34.2501 120.685C36.2356 120.76 38.3479 120.499 40.4043 120.246C41.2123 120.146 42.0117 120.047 42.7914 119.971C44.1259 119.839 45.5702 119.756 47.0268 119.672C49.2639 119.542 51.53 119.411 53.4718 119.104C55.1245 118.842 56.7765 118.332 58.4127 117.827C59.215 117.58 60.0135 117.334 60.8065 117.118C62.0135 116.79 63.2375 116.477 64.4661 116.163C67.2976 115.438 70.1529 114.707 72.878 113.777C74.4973 113.224 76.057 112.454 77.6171 111.684C79.2787 110.864 80.9408 110.044 82.6758 109.485C82.6989 109.477 82.7231 109.47 82.7465 109.463L82.7623 109.458C82.9921 109.756 83.2203 110.06 83.4496 110.365C84.1191 111.256 84.7981 112.16 85.5545 112.954C86.964 114.433 88.282 114.463 90.195 114.49C90.5862 114.92 90.987 115.422 91.4027 115.943C92.4992 117.317 93.6994 118.821 95.0997 119.476C97.4037 120.553 101.202 119.135 103.668 118.214C103.894 118.13 104.108 118.05 104.309 117.977C103.275 120.577 101.964 123.05 100.654 125.521C100.379 126.039 100.104 126.558 99.8316 127.078C98.4106 129.816 97.0045 132.565 95.6183 135.322L85.1374 135.356C85.2304 137.443 85.2853 139.529 85.1307 141.614C84.3777 142.528 82.1707 144.856 79.6939 147.469C75.5995 151.788 70.768 156.884 70.5494 157.652ZM129.155 103.32C128.793 103.296 128.424 103.303 128.072 103.4C127.385 103.589 126.749 104.161 126.4 104.773C125.939 105.577 125.846 106.531 126.097 107.418C126.361 108.356 126.928 108.764 127.744 109.216C128.191 109.26 128.637 109.296 129.077 109.173C129.701 108.997 130.246 108.461 130.551 107.904C131 107.084 131.057 106.085 130.799 105.195C130.523 104.243 129.988 103.794 129.155 103.32Z" fill="#BFBFBF"/>
<path fill-rule="evenodd" clip-rule="evenodd" d="M128.072 103.4C128.424 103.303 128.793 103.296 129.155 103.32C129.988 103.794 130.523 104.243 130.799 105.195C131.057 106.085 131 107.084 130.551 107.904C130.246 108.461 129.701 108.997 129.077 109.173C128.637 109.296 128.191 109.26 127.744 109.216C126.928 108.764 126.361 108.356 126.097 107.418C125.846 106.531 125.939 105.577 126.4 104.773C126.749 104.161 127.385 103.589 128.072 103.4ZM129.019 104.581C128.501 104.584 128.092 104.636 127.719 105.033C127.34 105.437 127.163 105.925 127.178 106.476C127.196 107.191 127.435 107.56 127.937 108.032C128.439 108.004 128.891 107.93 129.257 107.555C129.626 107.176 129.812 106.711 129.799 106.18C129.78 105.451 129.513 105.068 129.019 104.581Z" fill="#BFBFBF"/>
<path d="M138.465 89.3225C137.944 89.0903 137.341 89.1588 136.886 89.5011C136.43 89.8435 136.194 90.4046 136.267 90.9707C136.34 91.5368 136.713 92.0194 137.24 92.2331C138.036 92.5538 138.942 92.1763 139.276 91.3831C139.61 90.5899 139.249 89.6715 138.465 89.3225Z" fill="#BFBFBF"/>
<path d="M138.593 85.2595C138.574 85.2662 138.554 85.2696 138.538 85.2812C138.265 85.4599 138.192 85.5902 138.114 85.8958L138.323 86.2481C138.873 86.6439 139.299 86.7241 139.965 86.7875C140.298 86.5888 140.408 86.3984 140.509 86.0461L140.298 85.7271C139.738 85.3898 139.236 85.3263 138.593 85.2595Z" fill="#BFBFBF"/>
</g>
<g id="antenna-detail">
<path d="M87.5091 38.0675L86.1346 37.9306C83.8792 39.7208 67.8985 51.3334 67.1506 52.7729C67.1506 52.8063 67.1456 52.8397 67.1506 52.8731C67.2337 53.4408 71.314 58.8497 71.924 59.2772C71.9606 59.2355 71.9938 59.1904 72.0353 59.152C72.8331 58.4222 75.3163 57.6858 76.3634 57.6708C78.6786 57.6407 79.1174 59.7498 80.6914 60.887C81.2299 61.2761 82.252 62.051 82.6659 62.4434C82.7207 63.0512 82.2919 63.7092 82.1008 64.2887C79.5545 68.552 77.6248 69.1264 73.6143 71.8784C72.9927 72.7034 70.0209 69.7727 70.0209 69.7727C70.0209 69.7727 68.1611 68.0259 67.7157 67.2945C67.2204 66.4846 67.0143 65.6162 67.2453 64.6828C67.5827 63.3284 68.7943 61.9324 69.9794 61.2193C69.9578 61.2043 69.9328 61.1909 69.9129 61.1759C69.0968 60.5781 65.0564 55.2794 64.9334 54.3276C63.6386 54.7601 49.33 66.8036 48.7216 68.0042C48.6485 68.1445 48.5953 68.2814 48.5621 68.4367C48.2795 69.8011 47.7061 79.4198 47.8524 80.7474C47.8723 80.9395 47.9521 81.1064 48.0485 81.2701C47.8823 81.5306 47.8025 81.7777 47.7626 82.085C47.5033 84.124 46.6108 98.0678 46.8651 99.3704C48.1665 99.6793 47.9272 100.493 48.8047 101.291C49.084 100.898 54.8513 97.7372 55.8286 97.1627C61.5145 93.7995 67.0525 90.1891 72.4276 86.345C85.4665 76.8515 98.0233 66.9572 109.591 55.6735C114.087 51.2883 118.166 46.5875 122.51 42.0653C118.054 41.8733 113.514 41.0701 109.083 40.5407L87.5091 38.0675Z" fill="#1B1B1B"/>
<path d="M43.8568 72.9606C43.0972 73.1092 40.9382 75.4254 40.2335 76.1017C32.2373 83.785 24.4705 91.8908 18.0982 101.015C16.5824 103.186 12.2477 109.931 12.8162 112.588C12.9159 113.057 13.1103 113.174 13.481 113.416C13.5923 113.551 13.7103 113.61 13.8716 113.672C17.8057 115.203 30.0933 110.242 34.2235 108.47C36.9044 107.319 39.5088 105.965 42.208 104.868C41.962 104.439 41.8224 103.903 41.8407 103.405C41.8739 102.495 42.1266 101.551 42.2529 100.648C42.4224 99.4305 42.4889 98.1947 42.5521 96.9674C42.9709 88.9835 43.1255 80.9194 43.8568 72.9606Z" fill="#1B1B1B"/>
<path d="M137.78 12.3758C129.772 11.7412 99.6272 28.5924 92.1346 34.1098C93.8831 34.1649 95.6649 34.4522 97.405 34.6459C101.2 35.1969 105.049 35.5059 108.858 35.9718C114.524 36.6631 120.225 37.4931 125.934 37.6868C125.956 37.6668 125.976 37.6467 125.997 37.6267C127.528 36.0937 128.851 34.0781 130.138 32.333C133.992 27.1062 139.656 19.7552 139.683 13.0605C139.056 12.7615 138.45 12.5561 137.78 12.3758Z" fill="#1B1B1B"/>
<path d="M141.014 13.513C140.733 13.8637 140.773 14.8423 140.702 15.3149C140.491 16.7092 140.034 18.0836 139.555 19.4062C138.684 21.8075 137.309 24.0202 135.99 26.1961C134.266 29.0416 132.224 31.7419 130.207 34.3854C122.735 44.1795 114.114 53.2271 105.037 61.5283C85.041 79.8189 59.4835 98.816 34.6373 109.644C28.3946 112.364 21.1248 115.333 14.2405 115.009C14.2472 115.121 14.2405 115.111 14.2821 115.238C14.4616 115.804 15.2012 116.318 15.6948 116.589L15.8212 116.677C17.2539 116.886 19.0938 116.387 20.4866 116.063C30.7847 113.667 41.495 108.486 50.7028 103.35C60.0685 98.0127 69.1384 92.1714 77.8725 85.8474C90.933 76.3422 103.217 65.8049 114.607 54.3359C122.02 46.8697 129.132 39.0294 135.012 30.274C136.578 27.9445 138.235 25.6233 139.513 23.1184C140.853 20.4916 141.724 17.8298 142.528 15.0026C142.041 14.4899 141.521 14.0056 141.014 13.513Z" fill="#1B1B1B"/>
<path fill-rule="evenodd" clip-rule="evenodd" d="M130.394 97.2629C129.586 97.9264 128.87 98.787 128.16 99.6402C127.718 100.172 127.278 100.701 126.82 101.177C124.038 104.07 120.998 106.933 117.832 109.398C118.126 111.189 118.513 112.978 118.898 114.76C119.029 115.363 119.16 115.969 119.286 116.571L122.911 116.564L132.23 116.515C132.641 115.5 132.976 114.431 133.309 113.37C133.45 112.92 133.591 112.472 133.736 112.03C133.856 111.667 133.981 111.301 134.106 110.932C135.173 107.797 136.296 104.499 135.111 101.232C134.336 99.0981 132.751 98.3607 130.909 97.5042C130.739 97.4252 130.567 97.3452 130.394 97.2629ZM129.155 103.32C128.793 103.296 128.424 103.303 128.072 103.4C127.385 103.589 126.749 104.161 126.4 104.773C125.939 105.577 125.846 106.531 126.097 107.418C126.361 108.356 126.928 108.764 127.744 109.216C128.191 109.26 128.637 109.296 129.077 109.173C129.701 108.997 130.246 108.461 130.551 107.904C131 107.084 131.057 106.085 130.799 105.195C130.523 104.243 129.988 103.794 129.155 103.32Z" fill="#1B1B1B"/>
<path d="M60.3644 35.1168C60.0469 35.0767 59.7344 35.075 59.4153 35.075C59.2192 35.202 56.9854 38.2178 56.8026 38.6103C56.9605 39.4719 65.1095 50.5118 66.1118 51.2065C66.4608 50.4734 72.7118 45.6607 73.6692 45.2399C73.9467 44.5201 82.3933 38.1878 83.4952 37.625C79.3202 37.4714 75.0121 36.77 70.8553 36.2958C67.3766 35.9 63.8131 35.7096 60.3644 35.1168Z" fill="#1B1B1B"/>
<path d="M54.2879 40.6075C53.4718 40.6392 51.2978 42.0152 50.382 42.4194C50.3205 42.5229 50.2956 42.5496 50.2524 42.6515C49.9648 43.2977 48.8263 62.3966 48.8097 64.3087C48.8064 64.6443 48.8579 64.9449 48.9726 65.2605C49.31 64.4423 53.0314 61.2711 53.9222 60.8119C54.2314 60.1606 62.5915 53.5043 63.6685 52.8964C62.7677 52.1667 54.9976 41.9217 54.2879 40.6075Z" fill="#1B1B1B"/>
<path d="M93.5474 93.7411C92.2742 93.6943 90.9961 93.6976 89.7213 93.6809C89.1313 94.0667 88.513 94.4191 87.9113 94.7864L87.6571 96.9223C87.5424 96.4046 87.4609 95.6932 87.1684 95.2473C86.8825 94.8081 86.1429 94.7664 85.6642 94.6796C83.8077 95.8786 72.416 103.006 71.8592 103.869L71.9589 104.083C73.5578 104.784 78.9512 104.203 80.8542 104.121C83.1146 103.909 85.508 104.155 87.7335 103.684C90.3928 103.119 97.3153 99.0464 99.7219 97.45C101.339 96.3612 102.896 95.1822 104.386 93.9214C100.771 93.8914 97.1607 93.8296 93.5474 93.7411Z" fill="#1B1B1B"/>
<path d="M140.878 117.973C131.196 117.888 121.438 117.803 111.76 118.075C111.323 120.216 110.632 122.345 110.05 124.453C109.086 128.081 108.065 131.695 106.99 135.292C107.544 135.34 108.119 135.324 108.675 135.339C110.125 130.027 111.754 124.711 113.067 119.371C115.621 119.227 118.505 119.162 121.04 119.5C120.471 124.77 120.159 130.1 119.682 135.384L121.769 135.391C122.065 132.791 122.141 130.147 122.323 127.537L122.889 119.453L132.021 119.476C132.38 122.794 132.853 126.108 133.256 129.422C133.478 131.264 133.518 133.462 134.053 135.229C134.481 135.424 134.978 135.362 135.44 135.356C135.463 135.329 135.489 135.304 135.508 135.274C135.865 134.674 134.171 121.261 133.974 119.465L139.54 119.47C141.418 122.995 142.761 127.073 144.24 130.798C144.832 132.288 145.359 133.983 146.233 135.33C146.688 135.586 147.383 135.459 147.892 135.426C147.2 133.305 146.228 131.256 145.387 129.189L140.878 117.973Z" fill="#1B1B1B"/>
<path d="M127.631 73.6102C126.418 74.8559 125.427 76.9901 124.483 78.4913C123.228 80.4735 121.867 82.3856 120.406 84.2192C112.658 93.8179 103.39 102.127 93.6853 109.685C94.405 109.433 95.0565 109.093 95.7263 108.737C106.86 103.029 116.628 94.9618 124.357 85.0925C126.433 82.404 128.476 79.5467 129.671 76.3388C129.059 75.3786 128.336 74.5002 127.631 73.6102Z" fill="#1B1B1B"/>
<path d="M131.201 143.177C130.118 144.42 129.273 146.265 128.401 147.701C126.335 151.096 124.257 154.57 121.907 157.774L130.999 157.854C134.166 157.858 137.334 157.779 140.504 157.793C137.137 153.125 134.2 148.09 131.201 143.177Z" fill="#1B1B1B"/>
<path d="M115.123 143.72C113.692 144.73 112.413 146.516 111.248 147.832C108.321 151.141 105.479 154.518 102.514 157.794L107.11 157.768C111.406 157.796 115.701 157.801 119.997 157.781C118.322 153.112 116.697 148.424 115.123 143.72Z" fill="#1B1B1B"/>
<path d="M58.6691 31.4079L58.212 31.4162L58.074 31.5816C58.1339 32.2596 58.7538 32.9409 59.2358 33.3851C63.5007 33.9395 67.8087 34.2852 72.0869 34.716L92.3274 36.8969L113.929 39.4285C117.157 39.7775 120.423 40.2151 123.664 40.3937C124.048 39.9679 124.374 39.4803 124.711 39.0177C121.427 38.4349 118.083 38.116 114.772 37.7302L99.1369 35.9551L58.6691 31.4079Z" fill="#1B1B1B"/>
<path d="M130.839 120.804L124.314 120.795C124.05 122.551 124 124.386 123.872 126.158L123.222 135.449L124.829 135.459L132.622 135.387C132.257 130.538 131.437 125.633 130.839 120.804Z" fill="#1B1B1B"/>
<path d="M130.457 142.357C125.564 142.274 120.656 142.349 115.761 142.373C116.929 146.18 118.287 149.949 119.55 153.728C120.001 155.002 120.501 156.25 121.021 157.497L130.457 142.357Z" fill="#1B1B1B"/>
<path d="M146.777 143.655C145.975 144.811 143.319 155.476 142.661 157.761C146.511 157.916 150.398 157.859 154.251 157.814L158.595 157.801C154.565 153.155 150.288 148.737 146.777 143.655Z" fill="#1B1B1B"/>
<path d="M145.854 142.347C141.214 142.322 136.573 142.361 131.934 142.466C133.907 145.515 135.769 148.656 137.697 151.736C138.907 153.708 140.175 155.717 141.599 157.542C142.523 155.029 143.181 152.374 143.89 149.79C144.566 147.322 145.311 144.849 145.854 142.347Z" fill="#1B1B1B"/>
<path d="M92.2992 77.6998L91.8687 77.643C91.3003 77.8167 90.815 78.3795 90.3845 78.7786C89.5734 83.0302 88.769 87.3169 88.3102 91.6236C90.7767 90.2843 93.067 88.3505 95.3042 86.6572C97.2355 85.0792 102.429 81.6876 103.586 79.9174C103.819 79.5618 103.857 78.994 103.914 78.5782C100.046 78.3895 96.1618 77.9987 92.2992 77.6998Z" fill="#1B1B1B"/>
<path d="M155.788 142.414C152.888 142.361 149.988 142.336 147.087 142.339C149.172 145.831 153.363 150.418 156.159 153.544C157.279 154.844 158.381 156.164 159.588 157.385C160.178 153.569 160.695 149.745 161.14 145.911C160.219 144.705 159.159 143.583 158.158 142.443L155.788 142.414Z" fill="#1B1B1B"/>
<path d="M105.378 80.8025C105.265 80.7925 105.152 80.7841 105.039 80.7775C104.74 80.7624 104.454 80.7357 104.183 80.891C101.977 82.1535 98.8444 84.9907 96.7169 86.6422C94.5712 88.3071 92.1745 89.8151 90.1767 91.6436C90.0637 92.026 90.2897 92.4185 90.4327 92.7742C95.1629 92.7692 99.8881 93.0447 104.62 93.0681C104.813 91.3514 105.872 81.6174 105.378 80.8025Z" fill="#1B1B1B"/>
<path d="M109.334 62.4467C107.831 63.3368 104.913 66.2859 103.457 67.5767C99.9563 70.6761 96.4028 73.7137 92.7961 76.6878L92.8078 76.8648L93.2366 76.8832C96.9928 77.142 100.746 77.4393 104.497 77.7716C105.127 77.3057 105.76 76.9199 106.453 76.5559C107.333 71.825 108.265 67.1409 109.334 62.4467Z" fill="#1B1B1B"/>
<path d="M89.4803 79.4966C88.1307 80.1062 84.0736 83.5245 82.5246 84.6901C78.9445 87.382 75.3013 89.9453 71.663 92.5504L71.6464 92.836C76.0459 92.4819 80.5135 92.674 84.9196 92.7942C85.7939 91.844 86.462 91.4984 87.7385 91.3431C88.2022 87.3586 88.9152 83.456 89.4803 79.4966Z" fill="#1B1B1B"/>
<path d="M119.328 120.628C117.669 120.585 116.002 120.61 114.341 120.603C113.14 125.543 111.514 130.377 110.352 135.337L118.3 135.357C118.571 130.444 119.191 125.548 119.328 120.628Z" fill="#1B1B1B"/>
<path d="M98.6217 145.108C97.4698 145.594 87.1518 156.204 85.7307 157.774C86.4288 157.814 87.1435 157.794 87.8448 157.804C92.0382 157.786 96.2333 157.793 100.427 157.823C100.154 155.911 99.1585 146.357 98.6217 145.108Z" fill="#1B1B1B"/>
<path d="M46.9515 42.0921C46.8568 42.1538 46.7753 42.2574 46.6972 42.3409C46.305 46.3253 46.2601 50.3966 46.044 54.3994L44.7643 76.09C44.3903 81.7009 44.0546 87.3119 43.7537 92.9278C43.6224 95.3793 43.2734 98.0444 43.4313 100.483C43.8451 100.616 44.2274 100.444 44.6462 100.346C44.8407 100.115 44.8939 99.9031 44.9321 99.6108C45.4391 95.7366 45.4756 91.6537 45.7116 87.7427L47.1543 63.3969L48.0601 49.0823C48.1532 47.6262 48.582 44.7873 48.3643 43.438C48.2978 43.0255 47.3205 42.6131 47.008 42.1789C46.9881 42.1505 46.9715 42.1221 46.9515 42.0921Z" fill="#1B1B1B"/>
<path d="M84.6936 93.5824C80.0082 93.2284 75.0686 93.4705 70.3683 93.5557C70.3334 93.5674 70.2952 93.5774 70.2586 93.5891C69.8946 93.711 69.396 94.04 69.2281 94.3857C68.806 95.8051 68.4004 101.032 68.4087 102.714C68.4121 103.131 68.4137 103.178 68.7146 103.472L70.6575 103.457C71.1727 102.557 84.4975 94.9902 84.8864 93.8863L84.6936 93.5824Z" fill="#1B1B1B"/>
<path d="M113.593 61.6936C112.52 61.5917 111.429 61.5817 110.351 61.5416C109.857 63.4888 107.01 75.6692 107.366 76.5392C108.356 76.2703 110.399 73.8556 111.197 73.0474C112.671 71.5645 120.341 64.3454 120.516 62.7506C120.541 62.5169 120.484 62.5035 120.335 62.3265C118.586 61.6418 115.498 61.7938 113.593 61.6936Z" fill="#1B1B1B"/>
<path d="M120.567 64.7713C119.889 65.132 109.932 75.5974 108.453 77.117C108.569 77.3274 108.692 77.5996 108.85 77.78C109.194 78.1741 109.679 78.1356 110.163 78.2041C113.042 78.3327 115.99 78.6667 118.854 78.9923C119.517 76.3321 119.982 73.5834 120.533 70.8949C120.92 68.9995 121.505 66.9722 121.631 65.0451C121.382 64.8047 120.91 64.823 120.567 64.7713Z" fill="#1B1B1B"/>
<path d="M157.826 136.573L146.077 136.656C136.199 136.58 126.323 136.586 116.446 136.673L116.5 138.75L143.788 138.73C148.472 138.73 153.159 138.64 157.842 138.735L157.826 136.573Z" fill="#1B1B1B"/>
<path d="M108.777 78.8938L108.66 78.9238C108.022 79.6219 107.389 80.1796 106.536 80.5988C106.209 84.7886 105.8 88.9701 105.313 93.1449C106.937 91.652 108.534 90.1273 110.102 88.5743C112.932 85.7104 115.666 82.8148 118.319 79.7838C115.141 79.4565 111.956 79.2344 108.777 78.8938Z" fill="#1B1B1B"/>
<path d="M124.45 46.7445C123.202 47.6612 122.175 49.3295 121.088 50.4734C119.823 51.806 111.41 60.0337 111.099 60.6165L111.345 60.7885C114.599 60.9572 117.832 61.1208 121.066 61.5333C121.478 61.1442 121.949 60.8286 122.411 60.5013C122.913 57.5422 123.393 54.5797 123.852 51.6123C124.093 50.0125 124.42 48.3643 124.45 46.7445Z" fill="#1B1B1B"/>
<path d="M112.167 145.3C108.021 145.318 103.874 145.303 99.7269 145.255C100.226 148.822 100.531 152.397 101.17 155.947C101.251 156.45 101.376 156.954 101.482 157.454C105.23 153.603 108.651 149.363 112.167 145.3Z" fill="#1B1B1B"/>
<path d="M138.509 120.789L135.607 120.8C135.92 125.668 136.716 130.499 137.014 135.367L144.546 135.344C142.568 130.478 140.557 125.627 138.509 120.789Z" fill="#1B1B1B"/>
<path d="M68.3389 95.0703C67.9367 95.0553 67.6575 95.2156 67.3201 95.4093C64.4896 97.0275 61.7788 98.9596 58.9849 100.665C57.4607 101.595 53.3405 103.697 52.2203 104.731L52.3964 104.926C54.8413 104.849 57.2862 104.824 59.7328 104.853C61.2768 104.874 63.0569 105.082 64.5777 104.839C65.673 104.664 66.6004 103.888 67.7289 103.674L67.8952 103.644C67.5428 102.859 67.9849 96.0923 68.3389 95.0703Z" fill="#1B1B1B"/>
<path d="M96.5873 145.28C92.5285 145.275 88.4698 145.297 84.411 145.343C83.9507 146.886 84.5108 154.742 84.662 156.699L84.775 156.954C85.4764 156.844 95.6083 146.39 96.5873 145.28Z" fill="#1B1B1B"/>
<path d="M51.1333 105.609C50.3023 105.589 48.1283 106.8 47.5083 107.391C47.5017 107.449 47.4834 107.563 47.4884 107.628C47.5432 108.308 49.29 112.205 49.7022 112.608C50.6247 112.184 51.72 111.935 52.6807 111.574C54.4391 110.911 56.1643 110.131 57.9494 109.544C59.053 108.468 63.5937 107.469 64.0924 106.361L63.9079 106.098C61.8486 105.202 54.13 106 51.248 105.624L51.1333 105.609Z" fill="#1B1B1B"/>
<path d="M162.269 146.92C161.813 147.439 160.806 156.478 160.616 157.769L170.188 157.831L172.47 157.843C169.116 154.157 165.716 150.517 162.269 146.92Z" fill="#1B1B1B"/>
<path d="M83.5301 146.678C83.4254 146.689 83.3257 146.706 83.226 146.746C82.5778 147.008 73.3151 157.088 73.1622 157.515L73.4099 157.776C76.8969 157.863 80.4038 157.803 83.8925 157.811C83.8808 157.788 83.8709 157.764 83.8592 157.741C83.3839 156.816 83.3639 148.124 83.5301 146.678Z" fill="#1B1B1B"/>
<path d="M130.458 77.1654C130.251 77.3491 127.47 82.3338 126.842 83.2289C124.302 86.8126 121.487 90.1891 118.418 93.3286C114.277 97.5618 109.634 101.172 104.813 104.584C102.617 106.139 100.093 107.469 98.1081 109.295L98.2211 109.407C101.756 108.029 105.73 105.477 108.85 103.301C116.577 97.9109 123.511 90.974 128.574 83.0018C129.421 81.6659 130.61 80.0611 130.871 78.473C130.964 77.9019 130.768 77.613 130.458 77.1654Z" fill="#1B1B1B"/>
<path d="M124.412 62.6672C123.882 62.9494 123.248 63.7393 122.77 64.1551C121.6 68.6889 120.946 73.3246 119.818 77.8618L122.397 74.6539C124.934 71.3374 127.626 67.8807 129.622 64.2052C127.867 63.7342 126.137 63.2433 124.412 62.6672Z" fill="#1B1B1B"/>
<path d="M136.103 32.6052C136 32.657 135.888 32.7138 135.799 32.7872C134.931 33.492 134.047 35.055 133.347 35.9584C131.529 38.328 129.674 40.6676 127.782 42.9788C127.414 43.4347 126.405 44.4149 126.232 44.8975C126.194 45.0044 126.207 45.2165 126.197 45.3367C126.493 45.7542 126.807 45.7826 127.281 45.9546C128.454 46.3871 129.591 46.8613 130.726 47.3857C131.444 46.6927 132.18 46.0414 132.951 45.4068C134.103 42.0169 135.664 36.0904 136.103 32.6052Z" fill="#1B1B1B"/>
<path d="M119.283 96.2743C118.58 96.5432 114.916 100.134 113.923 100.97C115.465 102.712 117.295 104.223 118.867 105.957C119.648 105.85 123.415 102.004 124.214 101.239C122.579 99.5758 120.935 97.9209 119.283 96.2743Z" fill="#1B1B1B"/>
<path d="M157.824 139.816L120.317 139.804C119.146 139.808 117.752 139.664 116.617 139.879C116.369 140.21 116.475 140.526 116.499 140.928C119.489 141.103 122.549 140.985 125.547 140.985L142.073 140.992L152.454 141.015C154.108 141.018 155.974 141.187 157.603 140.953C157.924 140.611 157.821 140.273 157.824 139.816Z" fill="#1B1B1B"/>
<path d="M86.0615 104.691C84.0288 104.699 81.9396 104.988 79.9052 105.127C77.2127 105.309 74.4985 105.36 71.8027 105.461C71.1328 105.795 69.9777 106.486 69.4808 107.034C69.4608 107.105 69.4326 107.187 69.4259 107.264C69.3744 107.949 69.9893 109.555 70.4497 110.061C70.4414 110.115 70.4265 110.166 70.4248 110.22C70.4049 110.566 70.493 110.741 70.7107 110.985C72.0553 111.003 84.2116 105.683 86.0615 104.691Z" fill="#1B1B1B"/>
<path d="M124.325 90.8087C122.813 92.4034 121.335 94.0116 119.778 95.5679L124.796 100.533C126.36 99.6042 128.238 96.9623 129.453 95.5412C127.718 93.9882 125.989 92.4368 124.325 90.8087Z" fill="#1B1B1B"/>
<path d="M68.6813 107.389C67.5561 107.48 66.5805 107.698 65.4885 107.287C63.489 107.807 55.5195 111.207 54.0086 112.264C54.2646 112.429 54.7449 112.357 55.0541 112.361C60.1018 112.104 65.1644 111.972 70.2021 111.586C69.3827 110.684 68.9306 108.587 68.6813 107.389Z" fill="#1B1B1B"/>
<path d="M128.614 85.166C127.282 86.7675 126.132 88.5008 124.774 90.0923L129.945 94.8132L130.05 94.7965C131.459 93.6108 132.656 91.3364 133.686 89.7867C132.006 88.232 130.272 86.7424 128.614 85.166Z" fill="#1B1B1B"/>
<path d="M113.313 101.51C111.636 102.61 110.133 104.004 108.446 105.118C110.06 106.898 111.822 108.57 113.499 110.295C115.134 109.099 116.74 107.862 118.314 106.586C116.615 104.93 114.971 103.208 113.313 101.51Z" fill="#1B1B1B"/>
<path d="M132.514 50.6521C131.416 51.1864 125.454 60.1339 124.45 61.7403L125.703 62.2313C127.149 62.7156 128.614 63.1397 130.094 63.5055C130.57 62.0326 130.764 60.366 131.052 58.843C131.565 56.1211 132.12 53.3958 132.514 50.6521Z" fill="#1B1B1B"/>
<path d="M115.49 136.681C108.968 136.686 102.436 136.576 95.9142 136.658L95.9225 138.806C102.403 138.926 108.901 138.816 115.384 138.874L115.49 136.681Z" fill="#1B1B1B"/>
<path d="M125.727 46.3387L125.549 46.3938C125.127 47.0484 123.574 57.958 123.454 59.5477C124.081 58.5341 124.794 57.5605 125.471 56.5786C127.023 54.5163 128.848 52.2552 130.003 49.9474C130.272 49.4097 130.515 48.8168 130.322 48.2157C129.501 47.2204 126.955 46.6994 125.727 46.3387Z" fill="#1B1B1B"/>
<path d="M46.8152 107.834C45.8878 107.904 34.7985 113.115 34.1936 113.76C34.8368 113.66 35.4983 113.62 36.1481 113.56C40.4196 113.067 44.7543 112.912 49.0441 112.618C48.213 111.901 47.1709 108.936 46.8152 107.834Z" fill="#1B1B1B"/>
<path d="M44.977 114.809C41.9953 114.749 25.7054 116.031 23.9935 117.057C24.2229 117.33 24.6517 117.3 25.0007 117.354C27.6866 117.808 31.521 118.685 34.157 118.556C35.8689 118.473 43.4379 115.739 44.977 114.809Z" fill="#1B1B1B"/>
<path d="M132.187 95.1304C131.703 95.2857 131.338 95.8903 131.027 96.2827C131.871 96.615 132.769 96.959 133.538 97.4466C139.276 101.07 136.139 108.916 134.472 113.869C134.235 114.577 133.628 115.893 133.796 116.611L134.954 116.594C135.13 116.49 135.194 116.495 135.28 116.302C135.835 115.059 136.118 113.663 136.527 112.362C137.753 108.458 139.262 104.409 137.682 100.356C136.646 97.7005 134.705 96.2192 132.187 95.1304Z" fill="#1B1B1B"/>
<path d="M131.7 79.9625C131.226 80.3232 129.503 83.6631 129.007 84.4797L133.942 88.7664C134.107 88.8916 134.123 88.8465 134.319 88.8215C135.378 87.4338 136.078 85.323 136.437 83.6263C134.391 82.7112 133.103 81.7093 131.7 79.9625Z" fill="#1B1B1B"/>
<path d="M76.4481 58.8597C75.1384 58.7395 73.5428 59.3307 72.4027 59.9786C72.3993 60.5781 72.9362 60.8787 73.0475 61.4247C73.134 61.8539 72.996 62.5018 72.7567 62.8575C72.6487 63.0195 72.4126 63.1331 72.2248 63.1598C71.4802 63.2633 70.8021 62.7724 70.2287 62.3699C69.7733 62.5068 69.3694 62.9377 69.0952 63.3151C68.6614 63.9146 68.2957 64.4774 68.422 65.2438L68.2392 65.6964C68.3356 65.9068 68.3622 66.0421 68.565 66.1673C69.037 66.4662 69.6686 66.4345 70.1938 66.3059C72.6154 65.7148 74.9888 63.2182 76.252 61.1125C76.5296 60.6482 77.0548 59.7632 76.8703 59.2004C76.7955 58.9733 76.6492 58.9616 76.4481 58.8597Z" fill="#1B1B1B"/>
<path d="M53.505 28.1432C52.8834 28.1048 52.2768 28.033 51.6685 28.2016L51.5388 28.4371C51.7266 29.0433 51.848 29.6027 51.6602 30.2239C51.0967 32.0942 48.8413 33.7424 47.1959 34.6492C46.5061 35.03 45.7233 34.9966 44.9521 35.0283C44.6463 35.1953 44.5366 35.3322 44.3637 35.6345C44.3571 35.9785 44.4136 36.2239 44.6346 36.5062C44.8839 36.8234 45.3443 36.7683 45.71 36.7917C46.31 36.7066 46.8984 36.5596 47.4701 36.3542C50.0862 35.4357 53.4186 33.0695 54.597 30.4744C54.7998 30.0302 54.9095 29.429 54.71 28.9698C54.4973 28.4822 53.9604 28.3235 53.505 28.1432Z" fill="#1B1B1B"/>
<path d="M105.117 121.363C105.004 121.457 104.916 121.529 104.831 121.652C103.92 122.986 98.2976 134.586 98.4023 135.135L98.8477 135.267C99.2948 135.267 99.697 135.26 100.136 135.155C101.293 133.754 105.14 125.019 106.249 122.754C105.89 122.277 105.499 121.822 105.117 121.363Z" fill="#1B1B1B"/>
<path d="M106.349 106.892C105.233 107.358 104.067 108.299 103.014 108.941L107.886 114.052C108.983 113.449 110.022 112.641 111.054 111.932C109.475 110.262 107.908 108.582 106.349 106.892Z" fill="#1B1B1B"/>
<path d="M67.3699 112.878C64.4115 112.453 54.3344 114.241 51.1698 114.82C51.1698 114.864 51.1698 114.909 51.1732 114.952C51.2064 115.428 51.8131 115.956 52.1588 116.24C52.1654 116.293 52.1654 116.347 52.1754 116.399C52.2552 116.778 52.6674 117.036 52.9615 117.242C55.3267 116.372 57.8962 115.814 60.3261 115.134C62.7012 114.47 65.0331 113.663 67.3699 112.878Z" fill="#1B1B1B"/>
<path d="M78.4393 59.8968L78.062 60.007C77.5268 61.1793 75.3711 64.0699 75.2298 64.646C75.2498 64.808 75.2747 64.9382 75.3478 65.0852C75.755 65.8918 77.1811 67.4949 78.0387 67.737C78.4525 66.9906 79.2886 66.2859 79.7972 65.5411C80.3606 64.7161 80.7877 63.452 81.426 62.7707C80.4154 62.258 79.1406 60.8035 78.4393 59.8968Z" fill="#1B1B1B"/>
<path d="M141.596 23.1301C141.064 23.8966 140.655 24.8418 140.201 25.665C139.354 27.2014 138.476 28.7227 137.607 30.2473C137.552 30.5212 137.688 31.1424 137.748 31.4263C137.846 31.8988 138.27 32.1376 138.646 32.3764L140.469 33.8059C141.634 31.7051 141.709 25.6684 141.596 23.1301Z" fill="#1B1B1B"/>
<path d="M50.1776 115.104C50.1178 115.086 50.0579 115.068 49.9981 115.053C48.5189 114.709 39.8163 117.649 38.4052 118.561C39.0102 118.573 39.6302 118.511 40.2352 118.479C44.1692 118.182 48.0984 117.843 52.0241 117.462C51.474 117.021 50.4718 115.741 50.1776 115.104Z" fill="#1B1B1B"/>
<path d="M137.339 32.4783C137.313 32.4883 137.286 32.4967 137.261 32.51C137.206 32.5418 137.017 32.6837 136.989 32.7321C136.611 33.3834 134.889 41.6545 134.291 43.6083L135.491 41.9518C137.191 39.5938 138.624 37.0506 140.087 34.5407C139.189 33.8309 138.257 33.163 137.339 32.4783Z" fill="#1B1B1B"/>
<path d="M139.793 39.1864C139.743 39.2482 139.693 39.31 139.645 39.3734C138.423 40.9548 134.201 47.3456 134.426 49.074L134.82 49.3412L136.754 50.3532C137.796 47.6379 139.448 42.0052 139.793 39.1864Z" fill="#1B1B1B"/>
<path d="M134.163 50.0091C133.969 50.0025 133.786 50.0192 133.593 50.0359C133.081 50.9577 131.648 59.688 131.163 61.6268L132.109 59.8951C133.678 57.0445 135.185 54.1906 136.51 51.2165L134.163 50.0091Z" fill="#1B1B1B"/>
<path d="M55.812 30.2206C55.5793 30.3408 55.5743 30.4143 55.4613 30.6414C55.0092 31.5599 53.8208 32.9626 53.5599 33.7441C53.5632 33.7775 53.5599 33.8109 53.5682 33.8426C53.7128 34.5323 55.3134 36.3442 55.9167 36.7516C56.653 36.7683 57.8397 34.5106 58.4364 33.9812C57.4474 33.3817 56.407 31.2442 55.812 30.2206Z" fill="#1B1B1B"/>
<path d="M46.2452 26.0658C45.6585 26.2478 44.9056 27.203 44.5582 27.7174C45.0335 28.6909 46.5128 30.4577 47.4834 30.952L47.879 30.8151C48.0917 30.0619 49.4214 28.9631 50.0895 28.5874C48.7383 28.0113 47.4685 26.8941 46.2452 26.0658Z" fill="#1B1B1B"/>
<path d="M60.4092 45.3567C60.1583 45.3751 60.1184 45.3818 59.9123 45.5271C59.9156 45.5855 59.9189 45.6991 59.9372 45.7642C60.1267 46.4171 69.5722 59.1236 70.7339 60.5614C70.9683 60.852 71.196 61.0807 71.5118 61.2845L71.7495 61.1225C71.4071 59.7982 61.8851 47.5093 60.4092 45.3567Z" fill="#1B1B1B"/>
<path d="M53.1194 34.6709L52.6092 34.6542C51.9909 34.9966 51.1217 35.6345 50.7161 36.2173C50.7161 36.2523 50.7128 36.2891 50.7161 36.3241C50.8208 37.0622 52.2319 39.1146 52.8302 39.5705C53.5965 39.4218 54.6552 38.0675 55.4181 37.6384C55.3333 37.5883 55.2486 37.5365 55.1721 37.4747C54.6037 37.0138 53.2275 35.3723 53.1194 34.6709Z" fill="#1B1B1B"/>
<path d="M113.818 143.511C111.611 143.506 100.912 143.221 99.6555 143.615L99.5059 144.214C100.603 144.308 101.735 144.271 102.837 144.275C104.123 144.278 112.457 144.518 113.155 144.174C113.346 144.079 113.652 143.678 113.818 143.511Z" fill="#1B1B1B"/>
<path d="M99.569 111.127C99.1552 111.284 98.7579 111.409 98.4255 111.716C98.7779 112.803 102.026 115.629 103.009 116.48C103.418 116.325 103.814 116.227 104.08 115.856C103.383 114.632 100.681 112.257 99.569 111.127Z" fill="#1B1B1B"/>
<path d="M98.4139 143.523C94.7723 143.565 91.0759 143.309 87.4476 143.511C86.5651 143.56 86.1994 143.593 85.5878 144.275C88.9036 144.251 92.2128 144.33 95.5269 144.336C96.7203 144.34 97.5197 144.415 98.4139 143.523Z" fill="#1B1B1B"/>
<path d="M47.4269 100.563C46.4961 100.599 43.915 102.271 42.9759 102.785C42.8629 102.966 42.8529 103.255 42.8579 103.465C42.8679 103.906 42.9975 104.09 43.315 104.36C44.367 103.208 46.3997 103.288 47.284 102.049C47.6546 101.531 47.5183 101.164 47.4269 100.563Z" fill="#1B1B1B"/>
<path d="M94.6327 113.207L94.2471 113.289L94.1407 113.523C94.7756 114.745 97.3203 116.851 98.4072 117.903L98.6632 117.92L98.8294 117.673C98.3939 116.352 95.7263 114.148 94.6327 113.207Z" fill="#1B1B1B"/>
<path d="M74.8608 65.3875C74.8326 65.3875 74.8043 65.3841 74.7744 65.3841C74.4005 65.3841 74.3074 65.3474 74.0431 65.6229C74.0381 65.8066 74.0431 65.9435 74.1146 66.1155C74.3955 66.8102 75.5855 68.8075 76.2537 69.103C76.4664 68.9294 76.6442 68.7473 76.8254 68.5419C76.9185 67.4281 75.1883 66.4846 74.8608 65.3875Z" fill="#1B1B1B"/>
<path d="M50.8225 29.1802L50.4385 29.2821C49.7438 29.9868 47.9371 31.6767 47.8374 32.6169C47.9105 32.6102 47.9338 32.6102 48.0136 32.5935C48.961 32.3998 50.0579 31.2125 50.5748 30.441C50.874 29.9951 50.9222 29.7129 50.8225 29.1802Z" fill="#1B1B1B"/>
<path d="M44.8208 25.9155C44.4019 25.8855 43.8036 25.9539 43.4529 26.2228C43.2219 26.3998 43.2534 26.5133 43.2318 26.7722L43.5277 27.1062C43.8136 27.1579 44.0047 27.0895 44.2507 26.9125C44.5981 26.662 44.7427 26.323 44.8208 25.9155Z" fill="#1B1B1B"/>
<path fill-rule="evenodd" clip-rule="evenodd" d="M137.323 86.2321C137.516 85.5274 137.731 84.7442 138.024 84.5114C138.173 84.5381 138.321 84.5651 138.47 84.5921C139.388 84.7589 140.311 84.9267 141.237 85.0358C141.031 87.6792 139.227 95.0386 137.255 96.8037L136.974 96.807L136.746 96.5532C135.626 95.4377 134.53 94.723 133.124 94.0149C134.642 91.8958 135.94 89.628 137.002 87.2451C137.109 87.0109 137.212 86.6342 137.323 86.2321ZM136.886 89.5011C137.341 89.1588 137.944 89.0903 138.465 89.3225C139.249 89.6715 139.61 90.5899 139.276 91.3831C138.942 92.1763 138.036 92.5537 137.24 92.2331C136.713 92.0194 136.34 91.5368 136.267 90.9707C136.194 90.4046 136.43 89.8435 136.886 89.5011ZM138.576 85.2648C138.563 85.2688 138.549 85.273 138.538 85.2812C138.265 85.4599 138.192 85.5902 138.114 85.8958L138.323 86.2481C138.873 86.6439 139.299 86.7241 139.965 86.7875C140.298 86.5888 140.408 86.3984 140.509 86.0461L140.298 85.7271C139.738 85.3898 139.236 85.3263 138.593 85.2595C138.587 85.2615 138.582 85.2631 138.576 85.2648Z" fill="#1B1B1B"/>
<path fill-rule="evenodd" clip-rule="evenodd" d="M127.719 105.033C128.092 104.636 128.501 104.584 129.019 104.581C129.513 105.068 129.78 105.451 129.799 106.18C129.812 106.711 129.626 107.176 129.257 107.555C128.891 107.93 128.439 108.004 127.937 108.032C127.435 107.56 127.196 107.191 127.178 106.476C127.163 105.925 127.34 105.437 127.719 105.033Z" fill="#1B1B1B"/>
</g>
</g>
</svg>
