<svg width="1320" height="184" viewBox="0 0 1320 184" fill="none" xmlns="http://www.w3.org/2000/svg">
<g id="topography" clip-path="url(#clip0_4321_13251)">
<g id="topo-antenna">
<path d="M916.641 50.6965C929.157 56.7915 942.819 60.7494 956.29 64.0748C967.651 66.8732 979.098 68.8186 990.755 69.7194C1002.41 70.6202 1014.09 70.9269 1025.76 70.9269C1037.44 70.9269 1048.51 70.6298 1059.83 69.7386C1064.17 69.3936 1068.52 68.9719 1072.82 68.3011C1075.68 67.8602 1078.63 67.3811 1081.34 66.3269C1082.95 65.704 1084.87 64.7169 1084.4 62.6469C1083.96 60.7494 1081.92 59.6761 1080.3 58.9669C1077.82 57.8936 1075.19 57.2515 1072.57 56.6477C1069.03 55.8332 1065.55 54.9707 1061.94 54.5011C1057.05 53.8686 1052.13 53.4086 1047.22 52.9869C1042.3 52.5652 1037.1 52.1532 1032.03 51.8561C1028.11 51.6261 1024.21 51.674 1020.29 51.5877C1009.67 51.3386 999.109 50.0544 988.521 49.2207C975.327 48.1761 962.123 48.0994 948.929 49.0865C944.633 49.4027 940.346 49.8244 936.069 50.3132C935.324 50.3994 935.029 51.5302 935.878 51.7219C948.69 54.7023 961.369 58.2961 974.296 60.7686C981.361 62.1198 988.445 63.3177 995.595 64.1036C1003.41 64.9565 1011.28 65.4644 1019.15 65.7615C1027.02 66.0586 1034.68 66.1448 1042.44 65.9532C1048.61 65.7998 1054.82 65.5219 1060.93 64.6786C1061.84 64.554 1063.28 64.5732 1064.1 64.0844C1065 63.5286 1064.58 62.4744 1064.03 61.8419C1062.54 60.1361 1060.03 58.9957 1057.81 58.7752C1054.49 58.4398 1051.17 58.1619 1047.85 57.8552C1039.09 57.0502 1030.34 56.2452 1021.58 55.4307L1021.03 55.3827C1020.11 55.2965 1020.12 56.734 1021.03 56.8202C1028.35 57.4911 1035.68 58.1715 1043.01 58.8423L1055.68 60.0115C1056.49 60.0882 1057.3 60.1265 1058.11 60.2319C1059.67 60.4332 1061.33 61.334 1062.51 62.3498C1062.65 62.4744 1062.98 62.944 1063.13 63.0015C1059.55 61.7844 1063.31 63.2123 1063.22 63.1357C1062.51 62.5894 1063.64 62.8961 1063.31 62.8482C1062.85 62.7811 1062.16 63.0494 1061.69 63.1261C1055.96 64.0173 1050.13 64.2857 1044.34 64.4677C1036.95 64.6977 1029.55 64.6594 1022.17 64.4294C1007.32 63.9694 992.607 62.6565 977.981 59.9923C966.2 57.8457 954.677 54.7119 943.039 51.9232C940.785 51.3865 938.532 50.8498 936.279 50.3227L936.088 51.7315C950.485 50.0832 964.959 49.3548 979.442 50.0544C989.953 50.5623 1000.41 51.8561 1010.9 52.5652C1016.1 52.9198 1021.3 53.0252 1026.51 53.0444C1030.1 53.054 1033.7 53.3607 1037.27 53.6194C1042.46 53.9932 1047.66 54.4148 1052.84 54.9227C1056.95 55.3252 1061.12 55.6798 1065.19 56.4082C1066.76 56.6861 1068.29 57.1365 1069.84 57.4815C1072.48 58.0757 1075.12 58.6411 1077.68 59.4844C1079.32 60.0211 1082.27 60.8644 1082.96 62.714C1083.12 63.1548 1083.06 63.5382 1082.96 63.7011C1082.94 63.7298 1082.61 64.0652 1082.5 64.1419C1080.77 65.3877 1078.29 65.7998 1076.25 66.2215C1072.51 66.9977 1068.71 67.4482 1064.91 67.8315C1054.36 68.8857 1043.74 69.269 1033.14 69.4127C1021.51 69.5757 1009.86 69.3936 998.23 68.7515C987.538 68.1573 976.95 67.0552 966.448 64.8798C952.547 62.0048 938.695 58.1715 925.481 52.9677C922.741 51.8848 920.03 50.7252 917.376 49.4315C916.555 49.029 915.82 50.2652 916.65 50.6773L916.641 50.6965Z" fill="#F5A145" fill-opacity="0.33"/>
<path d="M999.221 55.4879C1007.99 55.1237 1024.56 55.2771 1031.92 57.1171C1037.18 58.43 1037.1 60.2316 1030.85 61.075C1021.28 62.3687 1004.53 61.6979 995.049 60.3946C980.556 58.4108 987.411 55.9766 999.221 55.4783V55.4879ZM1000.79 56.0437C995.383 56.2546 983.048 57.2225 992.042 59.2446C997.359 60.4425 1011.53 61.2858 1017.87 61.2283C1022 61.19 1039.02 60.5 1032.38 58.0658C1026.65 55.9671 1008.59 55.7371 1000.79 56.0437Z" fill="#F5A145" fill-opacity="0.33"/>
<path d="M1051.18 78.181C1033.95 78.181 1000.18 76.0151 990.513 74.3093C978.645 72.2105 938.252 64.4289 933.65 63.346C930.06 62.5026 898.507 54.9989 897.065 50.3605C896.846 49.661 896.951 48.9422 897.361 48.281C899.395 44.9747 909.906 43.1826 911.1 42.991H911.205L939.913 41.5918H939.961C940.314 41.611 975.409 43.633 988.87 45.7605C998.141 47.2364 1013.27 47.5143 1025.44 47.7443C1031.05 47.8497 1035.89 47.9455 1039.37 48.1276C1048.77 48.6355 1088.13 51.9705 1094.42 57.8547C1096.97 60.241 1098.18 62.4643 1098.13 64.6493C1098.07 67.1889 1096.29 69.0289 1094.73 70.3514C1091.73 72.9101 1069.3 77.0885 1058.47 77.9701C1056.68 78.1139 1054.18 78.181 1051.18 78.181ZM911.348 44.8789C907.166 45.5689 900.168 47.3514 898.975 49.2776C898.832 49.5172 898.841 49.661 898.879 49.776C899.758 52.2101 920.255 58.2285 934.079 61.4676C938.672 62.541 978.989 70.313 990.837 72.4022C1002.11 74.3955 1046.37 77.0214 1058.31 76.0439C1070.48 75.0472 1091.2 70.8305 1093.49 68.8755C1094.81 67.7447 1096.17 66.3551 1096.21 64.5918C1096.25 63.001 1095.21 61.2089 1093.11 59.2443C1088.12 54.5772 1055.03 50.878 1039.25 50.0251C1035.8 49.843 1030.98 49.7472 1025.39 49.6418C1013.17 49.4118 997.959 49.1243 988.565 47.6293C975.428 45.5497 941.412 43.566 939.894 43.4797L911.338 44.8597L911.348 44.8789Z" fill="#F5A145" fill-opacity="0.33"/>
</g>
<g id="topo-phone">
<path d="M388.309 86.432C382.304 92.5366 348.259 93.2937 339.504 92.3258C337.041 92.0574 331.38 91.0512 331.466 87.9558C331.905 84.937 335.924 83.8254 338.435 82.8287C348.154 78.9474 362.437 77.3087 372.814 78.0658C375.812 78.2862 394.295 80.3466 388.319 86.432H388.309ZM387.612 82.8574C387.011 82.2633 372.91 80.0879 370.895 79.9824C362.15 79.5224 348.975 81.257 340.622 84.0841C339.562 84.4387 332.144 87.1987 333.194 88.5883C348.211 91.722 367.707 91.7987 382.39 86.7195C383.24 86.4224 389.312 84.5441 387.612 82.8574Z" fill="#F5A145" fill-opacity="0.33"/>
<path d="M381.523 159.4C363.632 157.292 340.738 148.638 323.152 150.89C321.758 151.072 320.192 151.618 321.739 152.807C349.082 151.705 374.964 163.952 402.403 162.39C439.34 160.282 470.626 136.362 503.44 121.977C511.717 118.345 524.692 115.576 531.489 111.8C532.568 111.196 534.907 109.864 534.592 108.359C533.742 106.836 532.329 106.088 530.831 105.369C522.229 101.229 511.001 99.4947 501.846 95.1727C488.546 88.8956 481.902 80.6539 466.397 76.1306C433.545 66.5377 368.921 61.2477 334.637 62.7427C296.325 64.4006 214 73.936 181.053 91.6172C154.913 105.647 188.719 110.956 200.309 113.218C274.194 127.622 364.816 132.433 439.522 122.984C447.704 121.949 475.343 118.115 479.314 111.177C482.092 106.328 477.911 98.4023 475.257 94.061C469.29 84.3243 461.805 81.0564 451.351 77.8077L419.12 70.3997C435.646 71.9043 454.864 74.0797 470.636 79.5327C482.455 83.6152 490.055 91.9431 500.881 97.0893C508.08 100.511 527.365 104.813 531.766 108.254C532.215 108.608 533.045 109.375 532.73 109.672C478.77 122.878 440.62 166.377 381.523 159.4ZM408.618 68.4831L403.376 69.4223L394.307 67.5247L408.618 68.4831ZM297.403 108.723C324.651 111.388 399.825 110.889 421.506 94.3485C434.376 84.5352 418.633 78.5264 409.773 76.4277C383.375 70.1793 353.779 72.1535 327.448 77.5585L316.975 81.8806C325.911 81.0373 334.484 77.5106 343.335 76.2552C363.765 73.361 390.555 73.2268 410.537 78.5264C418.518 80.6443 431.015 84.9377 420.017 92.8535C396.273 109.921 310.12 110.659 281.612 104.449C262.633 100.309 256.933 93.7927 278.366 85.7906C318.025 70.9652 392.225 66.2693 432.457 79.5422C440.725 82.2735 454.52 88.1002 448.172 99.0731C443.303 107.478 420.055 110.995 410.861 112.413C367.059 119.169 295.924 120.674 252.818 111.33C248.217 110.333 232.693 106.768 232.206 101.402C231.356 92.0102 265.478 82.0339 272.657 80.0693C300.191 72.5273 330.465 69.5564 358.982 69.4606C359.211 71.1281 356.815 70.371 355.66 70.4093C339.745 70.9939 321.949 73.4089 306.301 76.4564C297.776 78.1143 287.904 80.4143 279.789 83.3852C240.073 97.9039 278.281 106.864 297.422 108.733L297.403 108.723ZM466.216 86.8543C470.693 90.1893 480.049 102.82 479.295 108.196C478.77 112.02 469.376 114.866 465.891 115.911C448.095 121.258 423.101 123.012 404.36 124.105C337.329 127.986 267.225 123.903 201.264 111.301C191.822 109.5 180.575 108.417 172.88 102.351C171.257 96.8018 189.053 90.151 193.311 88.5793C239.433 71.5497 291.78 69.7481 340.318 64.6018L391.433 66.5664C391.653 68.2435 389.266 67.4672 388.101 67.5152C368.339 68.3297 348.662 66.8827 328.899 68.4735C303.59 70.5243 260.819 77.2231 239.338 90.6973C208.243 110.209 269.449 116.314 280.209 117.339C319.715 121.096 374.535 120.568 413.601 114.205C422.929 112.681 447.465 108.465 450.167 98.2106C455.79 76.8493 417.506 74.2618 403.844 72.2973C403.854 70.5627 407.94 71.2814 409.086 71.3581C422.996 72.3452 455.256 78.6798 466.216 86.8448V86.8543Z" fill="#F5A145" fill-opacity="0.33"/>
</g>
<g id="topo-main">
<path d="M1558.09 128.848C1503.32 123.816 1447.77 116.121 1396.73 94.8172C1396.35 92.4309 1398.37 93.4468 1399.68 93.7918C1409.16 96.341 1419.58 101.411 1429.2 104.401C1471.23 117.463 1514.67 121.775 1558.09 127.88V128.848Z" fill="#F5A145" fill-opacity="0.33"/>
<path d="M1558.09 73.2642V75.1808C1544.57 75.0275 1531.01 75.3725 1517.48 75.2192C1507.78 75.1042 1497.77 73.3696 1487.89 74.1842C1485.51 74.3854 1476.87 75.5642 1476.89 78.5254C1476.94 84.4288 1499.7 92.0763 1504.86 93.6383C1521.85 98.7942 1540.5 101.938 1558.09 103.931V105.848C1534.57 102.244 1502.89 99.2254 1482.38 86.4892C1470.91 79.3592 1475.14 73.59 1486.97 72.3154L1558.09 73.2642Z" fill="#F5A145" fill-opacity="0.33"/>
<path d="M1558.09 116.389V118.306C1527.66 113.725 1496.91 108.972 1467.62 99.3885C1453.11 94.6447 1433.82 87.5531 1420.28 80.7872C1416.72 79.0143 1411.62 76.6952 1410.11 72.7852L1423.14 79.8289C1466.07 99.4364 1511.38 110.189 1558.1 116.38L1558.09 116.389Z" fill="#F5A145" fill-opacity="0.33"/>
<path d="M1558.09 112.556C1521.94 107.601 1483.26 100.874 1451.48 82.0521C1448.14 80.0684 1443.13 77.385 1441.61 73.7529L1462.92 85.895C1492.82 100.145 1525.43 106.384 1558.09 110.639V112.556Z" fill="#F5A145" fill-opacity="0.33"/>
<path d="M1558.09 78.0562V79.9729C1550.88 79.5896 1543.84 78.8612 1536.57 78.9762C1534.33 79.0146 1532.24 79.9058 1529.96 80.0112C1526.73 80.1741 1507.42 79.8579 1506.53 82.3783C1505.76 84.5441 1512.61 84.6304 1513.68 85.7421C1528.18 89.8916 1543.2 92.0287 1558.09 94.3479V96.2646C1544.02 93.8496 1529.37 92.7858 1515.68 88.5212C1511.98 87.3712 1498.8 83.6241 1507.9 79.9058C1514.27 77.2991 1534.69 77.2225 1542.34 77.2991C1547.19 77.3471 1552.94 78.8229 1558.1 78.0658L1558.09 78.0562Z" fill="#F5A145" fill-opacity="0.33"/>
<path d="M1558.09 22.4733V24.3899C1555.69 24.6295 1537.96 23.537 1538.03 25.8274L1558.09 30.1399V32.0566C1555.43 30.9162 1535.14 27.6291 1535.17 25.8179C1535.2 24.0066 1536.24 23.9395 1537.61 23.4795C1543.73 21.4574 1551.67 22.9237 1558.09 22.4733Z" fill="#F5A145" fill-opacity="0.33"/>
<path d="M1462.62 60.8154C1456.33 65.9521 1447.57 66.7092 1441.62 72.3058C1439.41 69.8333 1451.41 64.4859 1452.82 63.9109C1455.85 62.665 1459.44 61.6588 1462.62 60.8154Z" fill="#F5A145" fill-opacity="0.33"/>
<path d="M1445.87 159.476C1470.8 157.972 1498.17 163.722 1523.7 171.848H1530.82C1502.44 162.543 1472.25 155.643 1443.07 157.607C1430.07 158.479 1399.98 164.364 1376.8 171.848H1384.08C1406.8 165.236 1434.05 160.185 1445.88 159.476L1445.87 159.476Z" fill="#F5A145" fill-opacity="0.33"/>
<path d="M1462.13 142.284C1460.9 142.188 1456.41 141.268 1456.89 143.702C1491.41 147.478 1525.18 155.403 1558.1 166.232V164.316C1539.48 158.019 1520.34 152.183 1501.02 148.302C1489.22 145.935 1474.01 143.175 1462.14 142.284H1462.13Z" fill="#F5A145" fill-opacity="0.33"/>
<path d="M503.647 14.8532C504.764 14.8245 505.919 14.7478 507.084 14.6328H494.883C497.804 14.7861 500.745 14.9203 503.647 14.8532Z" fill="#F5A145" fill-opacity="0.33"/>
<path d="M924.048 14.6328H917.012C920.687 15.5432 924.353 16.5495 927.981 17.6803C928.602 15.7732 925.871 15.112 924.048 14.6328Z" fill="#F5A145" fill-opacity="0.33"/>
<path d="M1123.7 71.348C1126.4 67.5434 1108.89 59.4359 1105.9 58.0655C1072.45 42.7417 1037.47 47.313 1001.98 45.4634C980.622 44.3517 959.332 39.4642 937.994 37.8159C913.267 35.9088 870.038 37.9309 848.738 27.2646C855.288 29.9576 874.811 32.1713 882.631 33.0146C900.694 34.9601 918.967 34.4426 937.04 35.8992C957.528 37.5571 978.741 42.4063 999.115 43.5467C1036.46 45.6359 1087.89 39.8763 1119.82 63.2596C1123.42 65.8951 1125.14 67.2655 1123.7 71.348Z" fill="#F5A145" fill-opacity="0.33"/>
<path d="M848.74 27.265C844.549 25.1662 845.007 24.9554 841.561 22.4925C827.899 12.775 811.058 19.4066 798.141 9.05664C801.31 10.1396 804.337 11.9604 807.44 12.66C817.349 14.9121 831.775 13.5512 840.635 19.5887C842.64 20.9591 846.926 26.5175 848.74 27.265Z" fill="#F5A145" fill-opacity="0.33"/>
<path d="M864.968 45.4633C864.367 46.3546 852.299 48.1946 850.17 48.3479C842.084 48.9325 815.352 47.5812 808.717 43.9779C804.783 41.8408 807.285 40.1158 810.34 39.0329C820.813 35.3337 848.967 36.0621 859.517 39.9529C861.331 40.6237 866.773 42.8279 864.978 45.4729L864.968 45.4633ZM863.059 42.6075C862.161 41.7258 844.346 38.8891 841.626 38.7166C833.721 38.2087 818.951 38.0075 811.695 40.3937C810.473 40.7962 808.908 41.055 808.64 42.5883C824.851 45.6933 843.229 48.415 859.631 45.3675C860.242 45.2525 864.901 44.4091 863.059 42.6075Z" fill="#F5A145" fill-opacity="0.33"/>
<path d="M1039.67 159.026C1074.99 151.714 1115.7 156.812 1149.26 171.848H1153.63C1116.61 154.455 1075.03 147.967 1033.95 158.067C1020.54 161.364 1008.15 167.957 994.914 171.848H1001.06C1013.87 167.325 1026.33 161.786 1039.68 159.026H1039.67Z" fill="#F5A145" fill-opacity="0.33"/>
<path d="M829.589 24.9648C830.095 27.2073 824.147 29.8236 832.281 32.7656L902.94 42.0806C904.334 41.7644 905.632 41.1894 906.253 40.8061C900.639 40.0586 895.264 38.9277 888.237 37.9311C871.787 35.5927 851.748 35.1327 836.11 31.8073C824.1 29.2486 832.444 27.9836 831.47 24.1023C830.544 20.3744 817.226 17.7198 813.626 17.0011C810.829 16.4452 802.666 15.6306 796.012 14.6436H788.336C797.749 17.7677 824.625 18.3811 829.589 24.9744V24.9648Z" fill="#F5A145" fill-opacity="0.33"/>
<path d="M320.793 153.275C309.021 133.083 277.43 129.94 256.063 126.25C220.663 120.146 183.897 116.15 147.98 115.44L149.393 117.357C188.088 118.517 227.594 122.896 265.582 130.113C284.571 133.716 304.916 136.706 318.845 151.378C308.792 155.748 294.911 161.929 288.648 171.858H290.901C297.861 163.338 313.088 155.451 320.793 153.275Z" fill="#F5A145" fill-opacity="0.33"/>
<path d="M1356.02 150.736C1370.74 140.597 1349.85 129.202 1341.06 123.893C1312.9 106.864 1290.02 98.8424 1256.88 96.2741C1242.91 95.5266 1228.83 95.8812 1214.87 95.3062C1213.71 95.2583 1211.32 96.0345 1211.54 94.3574C1240.67 95.5458 1269.04 90.6774 1297.65 97.5008C1318.99 102.59 1334.85 114.626 1354.77 121.622C1374.12 128.407 1397.94 131.732 1418.35 134.473C1464.88 140.741 1512.24 142.188 1558.09 152.806V149.931C1510.45 140.262 1461.65 138.412 1413.58 131.589C1393.06 128.675 1371.01 125.503 1351.63 118.067C1331.74 110.429 1316.67 99.1204 1294.78 94.6354C1281.34 91.8754 1270.13 92.4695 1256.92 92.4791C1248.5 92.4791 1239.93 92.7858 1231.57 91.9616C1251.16 90.457 1270.52 86.9783 1290.17 89.6903C1318.87 93.6578 1342.1 109.537 1369.29 117.607C1378.82 120.443 1389.62 122.887 1399.42 124.737C1451.49 134.607 1505.62 136.927 1558.1 144.181V142.265C1504.35 134.291 1448.89 132.595 1395.6 121.862C1347.89 112.259 1313.05 84.1799 1262.9 86.9783C1230.01 88.8087 1195.26 93.217 1162.36 96.2645C1159.37 96.5424 1156.29 96.092 1153.3 96.2837L1158.07 98.1812C1152.22 98.3345 1129.09 101.123 1131.48 109.959C1133.41 117.089 1167.82 128.56 1175.48 131.033C1212.56 143.012 1250.93 151.005 1290.03 144.871C1301.32 143.098 1334.16 137.76 1316.08 121.191C1306.08 112.039 1287.43 106.528 1274.38 103.634C1270.1 102.685 1258.58 99.8008 1255 100.098C1253.6 100.213 1250.61 102.388 1252.57 103.471C1259.02 104.439 1288.9 113.668 1288.92 120.712C1288.92 122.83 1285.62 123.845 1284.08 124.516C1262.04 134.119 1205.4 123.385 1182.91 113.975C1173.87 110.189 1165.57 105.953 1180.23 101.746C1195.18 97.4529 1213.79 97.7787 1229.18 99.1491C1233.64 99.542 1246.98 102.858 1250.02 101.871C1251.27 101.468 1251.89 100.452 1251.62 99.1491L1239.22 98.1812C1238.96 96.5903 1241.56 97.1174 1242.59 97.1941C1257.58 98.3441 1273.05 99.3503 1287.73 102.676C1305.83 106.777 1324.38 116.14 1340.11 125.81C1345.35 129.03 1362.74 138.613 1359.05 146.107C1356.04 152.222 1312.9 163.06 1303.8 167.325C1300.89 168.686 1298.46 170.238 1296.29 171.858H1299.52C1315.96 162.064 1341.09 161.019 1356.02 150.736ZM1176.49 100.874C1163.75 106.892 1174.16 112.547 1181.94 115.901C1204.44 125.59 1261.24 135.575 1283.65 126.979C1285.5 126.27 1288.47 124.957 1289.32 123.088C1293.86 113.083 1271.81 107.132 1265.35 105.005C1262.94 104.209 1262.84 103.701 1265.44 103.941C1278.94 105.187 1307.78 114.856 1317.07 124.967C1326.75 135.508 1306.98 139.14 1299.37 140.837C1252.39 151.35 1194.25 138.355 1150.46 119.715C1140 115.268 1122.45 108.052 1143.54 102.292C1156.78 98.6795 1171.21 99.4558 1184.79 98.1908L1176.49 100.865V100.874Z" fill="#F5A145" fill-opacity="0.33"/>
<path d="M0 75.1815V73.2649C13.8338 73.2265 27.658 73.7153 41.4154 72.1915C64.214 69.6711 86.1342 61.9182 108.637 58.2095C127.425 55.114 146.672 54.7403 165.528 52.0665C190.074 48.5782 214.199 41.8986 239.117 40.6432C273.707 38.9086 312.764 45.1857 346.398 37.1645C349.052 36.532 362.638 33.1299 361.846 29.6799C353.081 24.4474 341.567 22.6745 331.476 20.8632C309.909 16.982 289.211 15.6403 267.367 11.4236C246.077 7.31238 227.508 12.1903 206.705 13.8482C188.613 15.2857 170.349 14.6149 152.305 16.7424C126.366 19.7995 100.98 29.4499 74.9545 31.0982C50.1033 32.6699 24.8607 26.4886 0.0190942 27.2745V25.3578C31.706 25.7986 60.987 32.1428 92.6453 26.8145C124.294 21.4957 148.868 15.4007 181.854 12.8611C201.072 11.3757 220.959 9.10446 240.139 8.11738C256.569 7.27404 262.746 9.81363 277.621 12.6407C299.742 16.8478 322.97 16.5411 345.654 21.9749C361.397 25.7411 374.333 31.2036 350.189 38.094C318.072 47.2557 274.041 40.9499 240.091 42.579C214.562 43.7961 189.768 50.4374 164.573 53.9832C146.176 56.5707 126.795 57.117 108.618 60.107C94.0392 62.5124 79.6421 67.2849 65.1209 70.112C43.3058 74.3574 22.3403 76.2357 0.0190942 75.2007L0 75.1815Z" fill="#F5A145" fill-opacity="0.33"/>
<path d="M0.00173462 29.1815C7.5726 29.3156 15.8786 29.3923 23.3826 30.1494C41.0353 31.9415 58.0005 37.9215 75.9396 36.8865C101.975 35.3915 127.083 21.7831 152.536 17.9402C168.394 15.5444 186.686 16.7519 202.916 16.6848C239.348 16.5219 276.2 13.0048 312.202 21.026C316.145 21.9077 339.192 27.7823 339.87 30.6381C339.526 33.4269 335.593 34.0019 333.397 34.6631C306.56 42.761 273.26 34.3852 245.878 32.9765C227.443 32.0277 145.767 35.1806 133.146 44.486C126.692 49.249 128.286 50.0731 118.587 52.8715C92.3224 60.4423 46.544 68.3965 19.5733 67.5052L-0.0078125 65.5981V64.6398C11.6492 64.3235 23.1917 66.1731 34.8774 65.6365C56.9599 64.6302 94.8047 57.4235 116.467 51.7023C126.94 48.9423 126.282 46.604 133.709 42.1765C145.576 35.0944 199.212 31.6348 215.232 31.0502C251.712 29.7277 297.49 41.4098 331.306 33.5227C332.709 33.1969 337.55 32.6506 337.006 30.619C336.328 28.1273 301.328 20.4223 296.306 19.7131C274.004 16.541 252.762 18.5248 230.593 18.6781C198.821 18.889 167.115 15.7265 136.306 23.6998C117.011 28.6927 96.886 37.4231 76.837 38.7552C58.6402 39.9627 42.2573 33.8198 24.3374 32.0565C16.2796 31.2706 8.08815 30.964 -0.0078125 31.0981V29.1815H0.00173462Z" fill="#F5A145" fill-opacity="0.33"/>
<path d="M0 58.8896V56.9729C18.1777 59.3113 36.7087 57.4808 54.6 53.8008C56.8531 53.3408 72.2908 49.7087 72.5677 48.8175C73.1692 46.8817 71.5366 47.5046 70.4673 47.1404C68.0805 46.3354 65.3119 45.7508 62.8392 45.1663C42.4847 40.3458 20.8796 35.3146 0 34.9312V33.0146C8.31555 33.3979 16.8125 33.9346 25.0421 35.19C36.8996 37.0108 52.8051 40.4417 64.3763 43.6233C74.4485 46.3929 79.7376 48.7217 66.2952 53.0725C46.2749 59.5508 20.8414 60.6338 0 58.88V58.8896Z" fill="#F5A145" fill-opacity="0.33"/>
<path d="M27.6867 45.4729C18.4737 43.8438 9.48984 40.7196 0 40.6813V38.7646C9.75716 39.8475 19.142 40.4225 27.6867 45.4729Z" fill="#F5A145" fill-opacity="0.33"/>
<path d="M27.6867 45.4729C28.0017 45.655 29.0233 45.3197 29.5961 45.473C29.7202 49.0093 25.0994 49.8143 22.3307 50.1497C15.2754 51.0026 7.02668 50.1497 0 49.2968V47.3801C6.69253 48.463 14.6739 48.9039 21.4715 48.3289C22.3785 48.2522 30.0734 47.361 27.6867 45.4635V45.4729Z" fill="#F5A145" fill-opacity="0.33"/>
<path d="M152.038 169.817C178.111 159.869 206.017 142.427 160.229 131.416C154.196 129.969 146.873 128.694 140.706 128.014C127.712 126.577 115.492 127.468 102.622 126.941C101.457 126.893 99.0705 127.669 99.2901 125.992C132.59 126.078 167.437 124.823 199.735 133.917C207.259 136.035 229.971 142.475 224.806 153.755C222.486 158.834 209.168 166.338 197.969 171.858H202.962C214.123 166.29 223.441 160.329 226.143 155.087C234.372 139.121 199.439 131.215 189.224 129.135C127.645 116.572 61.9417 129.011 0 131.723V133.639C4.20073 135.259 52.5187 127.64 52.5187 130.285L0 136.514V138.431C42.6661 134.052 86.3633 126.423 129.402 128.809C141.288 129.471 171.734 133.994 180.383 141.843C185.854 146.817 182.006 150.477 177.586 154.253C169.624 161.067 155.8 166.922 140.333 171.848H146.501C148.353 171.187 150.205 170.516 152.038 169.817Z" fill="#F5A145" fill-opacity="0.33"/>
<path d="M247.28 171.513C253.505 165.686 264.026 155.346 259.128 146.175C253.047 134.79 225.923 129.471 214.027 127.238C142.93 113.869 71.4793 122.619 0 126.931V128.848C67.5173 124.823 134.347 116.869 201.788 127.065C215.374 129.116 241.313 133.678 251.958 141.872C261.983 149.586 259.834 154.665 252.531 163.367C250.03 166.348 247.309 169.175 244.406 171.858H246.908C247.032 171.743 247.156 171.628 247.28 171.513Z" fill="#F5A145" fill-opacity="0.33"/>
<path d="M89.5138 165.523C95.5858 163.501 103.701 160.655 109.124 157.415C132.18 143.625 100.846 139.13 89.3038 138.402C59.8509 136.543 29.1951 140.903 0 144.181V146.097C28.8228 142.983 59.3067 138.479 88.3491 140.309C94.1346 140.673 109.591 142.916 113.964 146.212C114.852 146.883 115.577 147.123 115.568 148.484C115.539 155.144 86.9266 164.009 81.141 165.743C73.4938 168.034 65.6651 170.046 57.7505 171.848H67.3168C74.8017 170.017 82.2103 167.947 89.5043 165.513L89.5138 165.523Z" fill="#F5A145" fill-opacity="0.33"/>
<path d="M145.04 14.6338H130.242C125.249 15.2758 120.265 16.0425 115.301 16.9913C104.025 19.1475 93.4472 23.1629 81.6184 24.3896C61.0634 26.5075 39.7638 22.4442 19.1038 21.5146L32.8994 19.5596C43.3439 18.2754 53.5594 20.8821 63.5075 21.5146C81.1315 22.6358 98.7268 17.3746 116.236 14.6433H105.725C91.6906 17.1446 78.2005 20.4413 63.5075 19.6075C49.2441 18.7929 39.7924 18.4 25.3572 18.7067C16.9271 18.8696 8.25826 19.0804 0 17.6813V19.5979L17.1944 20.0771L0 20.5563V21.5146L67.3168 27.3317C93.8196 24.8113 118.852 18.2083 145.04 14.6242V14.6338Z" fill="#F5A145" fill-opacity="0.33"/>
<path d="M69.2166 14.8053C70.0854 14.7478 70.9542 14.6903 71.823 14.6328H48.4326L33.9305 15.8116L0 14.8053V16.722C23.1518 17.2778 46.1508 16.3866 69.2166 14.8053Z" fill="#F5A145" fill-opacity="0.33"/>
<path d="M0 93.3903V91.4736C33.8732 90.4194 65.8847 77.9994 99.0896 72.5848C114.145 70.1315 129.459 69.5278 144.524 67.4003C169.251 63.9023 194.513 56.7915 219.116 54.1082C242.115 51.5973 265.801 53.8207 288.762 53.1019C330.178 51.7986 371.269 43.6719 412.904 46.4415C427.912 47.4382 441.612 52.8719 456.162 55.7278C472.038 58.8519 488.412 59.6857 504.441 61.8898C533.436 65.8957 554.669 70.8215 584.761 68.4544C597.115 67.4865 642.407 62.5319 651.372 57.6923C659.477 53.3223 651.209 50.9553 650.331 46.6811C648.078 35.7273 668.423 34.5773 672.604 27.2461C674.008 28.3578 672.652 30.1978 671.688 31.1273C667.697 35.0086 650.188 38.7844 651.276 45.7228C652.088 50.9169 663.563 54.6161 649.204 60.299C637.404 64.9661 609.679 68.0328 596.227 69.4128C556.149 73.524 522.084 67.2469 482.741 61.6311C464.964 59.0915 450.615 55.4115 433.468 51.674C411.424 46.8728 390.01 48.4923 367.583 48.339C367.364 50.0161 369.751 49.2398 370.915 49.2878C388.262 50.0065 405.925 48.0132 422.947 52.6515C428.589 54.1848 434.28 57.4528 439.903 58.6315C454.663 61.7365 472.802 61.6023 488.221 63.7969C523.373 68.7994 546.773 76.3128 583.826 73.2461C600.6 71.8565 652.89 66.6815 666.122 60.9794C679.354 55.2773 663.019 51.5015 662.599 44.9082C662.074 36.6953 681.579 32.8332 682.581 29.5557C683.956 25.0515 670.934 24.3328 672.146 18.6307C673.626 18.5636 673.215 20.4228 674.619 21.4003C677.416 23.3457 683.679 24.4478 683.689 28.6836C683.708 35.4878 662.714 37.989 663.659 44.7548C664.308 49.374 676.614 52.6323 670.762 59.9061C667 64.5828 650.951 66.4036 644.784 67.3619C612.162 72.4219 569.553 79.0153 537.15 75.0478C521.053 73.0736 504.47 68.0136 488.211 65.7136C472.888 63.5478 455.837 63.6915 440.896 60.5003C427.367 57.6157 418.546 52.2873 403.423 51.1565C364.118 48.2336 327.753 53.4757 288.829 55.0378C268.351 55.8619 247.337 53.6578 226.773 55.0378C202.409 56.6669 176.459 64.8032 152.172 68.3203C134.28 70.9173 116.026 71.5019 98.154 74.4728C65.331 79.9353 33.5868 92.7386 0.0190942 93.3615L0 93.3903Z" fill="#F5A145" fill-opacity="0.33"/>
<path d="M-0.000437001 104.889C20.3922 102.541 41.0904 100.778 61.273 96.9156C76.5102 94.0023 91.4419 88.3865 106.593 85.8661C127.654 82.3586 148.696 83.6523 170.129 79.6848C189.309 76.139 208.461 69.0281 227.804 66.6611C247.146 64.294 268.751 64.3706 288.781 62.7031C314.711 60.5565 340.899 55.1131 367.058 56.9723C379.421 57.854 392.911 61.9269 405.38 63.5465C432.055 67.0252 461.918 66.6036 487.628 74.9027C497.405 78.0557 506.35 83.5086 516.47 86.2015C537.98 91.9131 560.788 91.2232 582.718 88.4632C612.018 84.7832 650.063 76.9536 678.972 70.0823C685.139 68.6161 701.159 64.6006 704.635 59.4256C709.389 52.3531 692.319 49.5452 693.111 42.2044C693.799 35.8411 704.243 32.5348 708.387 28.6631C708.921 26.4781 702.649 24.2644 704.033 21.5236C705.513 18.6102 710.162 17.0098 713.151 16.2336C722.526 15.2273 731.634 12.1511 740.799 10.4356C741.792 10.2536 743.921 9.17065 743.701 10.9627C733.744 16.0131 721.753 15.0452 711.442 18.3515C709.446 18.9936 706.181 19.7794 706.477 22.4723H739.415C739.711 22.4723 744.58 20.8527 745.009 20.594C745.515 20.2873 745.869 17.0194 747.53 18.6486C749.096 20.1819 741.343 24.389 739.415 24.389H708.864C708.597 24.389 707.06 22.9419 706.487 23.4306C704.682 24.9736 708.94 25.7977 709.284 26.8711C711.299 33.3015 695.708 35.5056 694.2 41.3515C692.443 48.1461 708.587 48.6827 706.305 59.1477C704.654 66.709 681.111 71.424 674.208 72.9669C633.594 82.004 571.729 96.7815 531.412 91.3477C512.461 88.789 500.202 80.5856 483.074 75.6598C457.994 68.4436 431.1 68.8173 405.38 65.4823C392.339 63.7956 379.23 59.7802 366.113 58.8986C337.901 57.0106 306.577 63.0673 278.279 65.5877C262.173 67.0252 245.8 66.6227 229.713 68.5873C205.769 71.5294 182.55 80.7294 158.826 83.6811C143.436 85.5882 127.616 84.7352 112.274 86.7861C95.7095 88.9998 78.8493 95.6986 62.2182 98.8323C41.7396 102.694 20.6595 104.285 -0.0195312 106.796V104.879L-0.000437001 104.889Z" fill="#F5A145" fill-opacity="0.33"/>
<path d="M0 101.057V99.14C12.4876 97.8654 24.9466 96.5525 37.2433 93.8787C55.612 89.8825 73.1691 81.8612 91.4519 78.3346C110.985 74.5683 131.426 74.8846 151.16 72.1437C175.734 68.7321 200.155 59.4937 224.835 57.9317C244.129 56.7146 264.408 59.8867 284.056 58.9187C321.767 57.0692 366.638 44.7067 404.034 54.3667C411.3 56.245 418.088 60.155 425.553 61.5158C446.137 65.2437 468.859 64.6208 489.977 68.7225C502.608 71.1758 515.201 76.4467 527.727 78.7467C565.037 85.5987 627.552 74.8079 665.625 67.2275C669.53 66.4512 687.708 63.0012 687.24 57.6154C686.849 53.0537 676.509 50.6579 676.891 45.4637C692.711 57.1554 692.987 62.0908 673.473 67.4383C645.557 75.0762 593.936 81.7271 564.75 82.8867C531.374 84.2187 514.599 74.9612 484.249 69.6904C465.088 66.365 444.218 66.825 425.573 63.4229C416.913 61.8417 409.476 57.28 401.008 55.4975C358.638 46.6042 313.671 61.0079 271.654 61.7937C256.55 62.0812 241.256 58.9475 225.789 59.8483C198.847 61.42 173.118 71.7604 146.424 75.0571C128.189 77.3092 109.525 76.5521 91.4519 80.2512C75.8614 83.4329 60.6338 90.2562 45.072 94.0704C30.2166 97.7025 15.199 99.5329 0 101.057Z" fill="#F5A145" fill-opacity="0.33"/>
<path d="M560.427 112.575C560.122 113.898 560.618 114.156 561.344 114.99C562.957 116.849 573.039 121.123 576.008 122.312C583.579 125.35 591.389 127.918 599.561 128.857L598.616 131.291C592.391 130.908 561.134 120.318 559.587 115.766C557.277 108.943 571.798 105.637 576.438 104.209C593.374 99.0146 611.886 96.2929 629.157 91.9613C641.635 88.8371 653.674 84.3809 666.372 81.4004C682.487 77.6054 713.525 74.8358 725.239 63.3454C726.776 61.8313 727.511 58.8221 729.392 57.9404C729.583 59.5313 729.087 60.7771 728.323 62.1188C720.237 76.3308 677.408 80.6242 661.789 84.4575C651.583 86.9588 641.673 90.7825 631.477 93.3221C607.695 99.2446 582.854 102.618 560.427 112.585V112.575Z" fill="#F5A145" fill-opacity="0.33"/>
<path d="M730.345 56.0146C728.311 54.5867 727.566 52.5646 725.504 50.8205C721.934 47.8017 706.429 42.9909 711.88 36.7617C717.389 30.4655 753.468 30.4176 763.282 29.1813C765.507 28.9034 780.305 25.9805 780.954 25.348C782.31 24.0255 780.639 23.6709 779.732 23.2205C775.283 20.9588 758.461 18.4863 756.771 14.5763C756.017 12.8321 755.96 12.1996 757.563 10.9921C758.165 10.7526 757.917 13.5221 759.54 14.7488C763.406 17.6909 780.706 19.6938 782.434 22.4442C784.639 25.9517 777.861 28.0026 775.245 28.7309C761.85 32.4971 720.855 31.2801 713.198 38.3238C712.148 39.2917 711.861 39.263 712.663 40.7196C714.706 44.4763 730.497 48.348 730.354 56.0242L730.345 56.0146Z" fill="#F5A145" fill-opacity="0.33"/>
<path d="M665.435 30.13C664.718 31.0883 646.846 37.1929 643.447 39.215C640.879 40.7483 639.17 42.8088 636.803 44.5146C636.488 42.7033 638.053 41.7642 639.161 40.6621C645.548 34.27 657.291 32.7462 664.967 28.2325L665.435 30.13Z" fill="#F5A145" fill-opacity="0.33"/>
<path d="M695.022 32.0469L683.432 38.1515L675.938 44.5148C677.847 36.6277 688.549 34.3373 694.554 30.1494L695.013 32.0373L695.022 32.0469Z" fill="#F5A145" fill-opacity="0.33"/>
<path d="M800.251 138.719C754.739 130.295 696.492 136.553 654.724 122.839C630.751 114.962 641.291 108.119 656.824 99.6092C682.009 85.8092 705.218 82.8096 730.595 73.0346C742.385 68.4921 751.885 59.8287 763.761 56.4937C784.049 50.8108 806.876 54.0404 827.727 53.1396L812.022 51.1846C792.46 51.5104 771.37 49.7662 753.384 58.535C744.715 62.7612 738.08 68.3004 728.408 71.7983C703.71 80.7108 681.303 83.9404 657.158 97.0696C638.312 107.314 628.125 117.118 655.898 125.503C697.762 138.134 753.269 132.327 798.322 140.664C835.422 147.526 871.033 162.773 907.656 171.867H916.63C877.391 163.223 838.43 145.791 800.251 138.728V138.719Z" fill="#F5A145" fill-opacity="0.33"/>
<path d="M822.503 154.713C760.581 133.946 697.703 138.229 633.461 133.639C625.594 133.074 616.352 130.783 608.657 130.735C606.595 130.726 605.87 130.237 606.242 132.69C615.302 133.457 624.401 134.846 633.461 135.556C688.405 139.887 746.69 135.958 800.259 150.209C819.171 155.24 841.216 163.108 862.888 171.857H868.158C852.52 165.465 836.834 159.514 822.513 154.713H822.503Z" fill="#F5A145" fill-opacity="0.33"/>
<path d="M590.767 140.636L671.679 141.278C731.091 142.792 780.077 146.213 830.915 171.858H835.546C767.389 136.189 700.74 139.946 622.912 139.438C610.654 139.361 598.472 138.211 585.994 138.719C541.58 140.549 514.113 148.877 473.567 164.824C467.819 167.086 461.69 169.433 455.484 171.858H461.356C502.848 154.627 544.616 140.07 590.777 140.636H590.767Z" fill="#F5A145" fill-opacity="0.33"/>
<path d="M522.686 163.339C561.409 148.58 606.08 146.453 647.095 145.427C695.126 144.229 765.67 143.309 808.48 171.857H812.451C769.47 140.635 691.985 142.034 642.321 143.51C602.987 144.679 557.839 147.228 521.035 161.68C516.91 163.299 507.946 167.104 501.645 171.857L505.129 171.858C511.172 167.977 518.839 164.805 522.686 163.339Z" fill="#F5A145" fill-opacity="0.33"/>
<path d="M592.379 160.463C629.126 147.593 718.888 146.864 755.663 159.505C765.43 162.859 771.846 167.219 774.853 171.858H777.44C776.361 169.855 774.71 167.804 772.361 165.743C753.639 149.298 692.7 147.525 668.088 148.302C647.475 148.953 590.088 152.26 575.643 166.673C573.791 168.523 572.855 170.248 572.578 171.858H574.822C576.569 166.309 588.474 161.824 592.36 160.463H592.379Z" fill="#F5A145" fill-opacity="0.33"/>
<path d="M694.076 27.2636C692.434 23.5166 685.77 23.7561 686.84 18.6291C688.453 16.7986 691.136 15.5624 694.21 14.6328H690.219C687.432 16.0895 685.541 17.8816 685.551 20.0857C685.551 23.7657 690.706 26.8707 694.076 27.2636Z" fill="#F5A145" fill-opacity="0.33"/>
<path d="M1139.47 146.089C1107.4 136.208 1075.71 130.985 1042.19 135.691C1031.49 137.195 1020.92 140.262 1010.26 141.968C944.679 152.49 882.68 134.435 818.524 125.149C794.198 121.632 744.142 120.415 723.959 110.822C714.384 106.27 717.467 101.804 723.654 95.7763C736.934 82.8196 762.549 73.4855 780.202 68.205C806.074 60.4617 832.233 58.2288 859.233 58.9092C859.452 60.5863 857.065 59.8101 855.901 59.858C838.382 60.5863 822.849 61.5638 805.568 64.9276C785.367 68.8567 758.033 75.7567 742.748 90.0359C729.554 102.36 741.555 106.864 753.431 109.998C764.659 112.959 777.624 114.608 789.185 116.275C852.072 125.35 941.233 140.943 1002.46 127.43C1037.42 119.706 1048.01 111.234 1086.66 118.594C1155.58 131.723 1234.41 182.084 1304.88 157.857C1305.6 157.608 1310.91 156.381 1308.91 154.733C1307.98 153.957 1288.99 159.563 1285.23 160.176C1212.92 172.079 1145.15 122.629 1075.47 114.493C1047.74 111.253 1037.44 116.342 1012.21 122.83C970.237 133.63 930.244 131.388 887.53 126.817C851.92 123.003 813.13 118.038 777.777 112.403C770.406 111.225 741.708 107.171 738.672 100.788C737.02 97.3192 743.455 91.8184 746.128 89.5759C758.911 78.9 777.901 73.2459 793.911 69.4988C798.885 68.3296 805.014 66.8538 810.055 66.5184C812.69 66.3459 812.757 66.94 810.132 67.5534C796.012 70.8692 779.734 73.1884 767.275 81.0946C748.009 93.323 758.911 99.5713 775.027 103.644C802.274 110.535 839.804 113.467 868.312 116.38C898.404 119.457 956.508 126.098 982.706 110.468C995.165 103.031 988.615 97.7217 978.829 93.6105C967.554 88.8763 954.475 86.2313 943.028 81.6313L905.068 70.3996C927.714 73.9359 949.042 82.743 970.943 89.0775C985.474 93.2846 1000.36 96.198 1014.86 100.578C1029.34 104.957 1042.73 112.02 1058.26 112.595C1080.67 113.419 1096.68 104.392 1117.17 99.7725C1155.09 91.2242 1198.26 95.968 1235.62 86.423C1240.27 85.2346 1248.04 82.7334 1240.54 79.1301C1231.78 74.923 1214.07 73.8976 1203.68 71.0896C1196.16 69.058 1184.37 65.1959 1177.19 62.2251C1172.7 60.3755 1168 58.3917 1164.78 54.5775C1164.8 52.2584 1178.93 49.8721 1181.42 49.2588C1184.38 46.5659 1189.46 50.2075 1185.05 44.4863L1162.88 34.8838C1160.43 31.1655 1171.77 29.2201 1174.35 27.7921C1176.99 26.3451 1178.08 24.2942 1180.07 22.9909C1186.32 18.918 1198.7 19.7613 1206.17 18.5155C1209.12 18.0267 1214.39 17.3846 1215.91 14.6246H1214.35C1213.95 14.9313 1213.41 15.2284 1212.71 15.5063C1205.02 18.5826 1191.21 16.4934 1182.61 19.7901C1178.76 21.2659 1177.9 24.1313 1175.19 25.7509C1172.29 27.4663 1161.88 29.0667 1161.03 31.7213C1158.6 39.3113 1180.03 41.8796 1183.83 45.943C1183.84 48.6934 1165.57 47.8692 1163.94 53.8205C1162.38 59.5034 1175.83 63.4325 1179.78 65.3588L1198.16 70.3709C1187.4 70.9363 1143.75 60.2988 1139.4 51.185C1137.91 48.0609 1145 45.8567 1141.63 42.8092C1137.56 39.1196 1101.51 39.3113 1093.62 38.7459C1073.77 37.3084 1053.37 35.9859 1033.74 32.7276C1020.46 30.5234 1007.58 26.3259 994.21 24.4955C973.397 21.6492 952.661 20.4034 931.571 17.3271C930.11 17.1163 929.48 16.6276 928.927 18.6209C950.885 24.0355 973.779 23.2209 996.081 26.4505C1011.58 28.693 1026.57 33.6763 1042.08 35.8613C1064.04 38.9663 1088.58 40.2984 1110.76 41.6592C1113.93 41.8509 1140.93 41.228 1140.85 44.9751C1132.79 51.8559 1142.72 56.9734 1148.81 60.0017C1174.48 72.7955 1207.77 72.163 1235.39 79.4655C1237.6 80.05 1240.36 80.7401 1242.06 82.3501C1240.85 83.1646 1238.76 83.9888 1237.35 84.3146C1195.21 94.1184 1150.08 88.9146 1108.01 100.146C1096.22 103.299 1085.05 108.79 1072.65 109.691C1036.62 112.317 1002.64 91.2625 967.115 86.1738L940.383 77.0792C961.654 82.4938 982.62 88.6367 1004.16 93.0642C1022.71 96.8784 1045.2 101.977 1064 101.018C1083.98 100.003 1104.14 95.1534 1124.17 93.3709C1148.74 91.1763 1177.38 92.4413 1201.21 87.3334C1204.32 86.6625 1213.34 85.1676 1209.68 80.3663C1206.24 75.8526 1170.72 69.5946 1162.62 67.218C1147.65 62.8384 1137.05 56.1684 1123.39 50.0542C1092.01 36.0146 1051.95 40.768 1018.33 35.7271C1002.15 33.3025 987.088 27.8976 970.447 26.2876C942.312 23.5659 913.833 28.9996 885.726 24.1217C882.995 23.6426 869.028 20.3459 869.763 17.2313C869.935 16.503 871.004 15.5926 871.854 14.6055H870.279C868.971 16.1676 867.644 18.1513 870.155 20.5855C872.685 23.0388 884.59 25.5688 888.466 26.1534C921.26 31.0888 953.883 24.2271 987.346 30.3988C994.277 31.6734 1001.05 34.1938 1007.98 35.5642C1039.75 41.8605 1073.64 38.6405 1104.78 45.7321C1121.86 49.623 1135.95 60.1263 1152.36 66.0105C1169.13 72.0288 1188.31 73.3896 1204.08 79.2642C1205.83 79.9159 1210.67 81.3246 1208.66 83.7684C1207.9 84.6884 1188.21 87.295 1185.26 87.6113C1164.39 89.8442 1143.16 89.595 1122.27 91.4638C1095.41 93.8596 1069.24 101.105 1042.17 98.0475C1029.85 96.658 1015.6 93.5817 1003.36 91.0134C988.596 87.9275 972.633 84.2859 958.322 79.6667C957.32 79.3409 955.439 79.4176 955.668 78.0471C980.185 83.2509 1004.78 90.3809 1029.77 93.2463C1061.49 96.8784 1104.38 92.3071 1136.58 88.5696C1142.09 87.9275 1156.4 86.4517 1160.45 83.7876C1169.71 77.7021 1156.96 72.1438 1151.72 69.5467C1139.79 63.6434 1124.51 56.6859 1112.2 51.7121C1077.94 37.8546 1038.16 42.9338 1001.97 39.6946C985.627 38.2284 969.282 33.063 953.157 31.1942C926.502 28.1084 899.168 32.2196 872.57 26.7955C861.543 24.5434 855.232 18.8988 846.898 14.6055H842.563C842.831 14.7109 843.098 14.8163 843.356 14.9217C850.468 17.8542 857.123 23.8438 863.5 26.3259C885.602 34.903 920.038 30.6 943.725 32.0471C963.334 33.245 982.543 40.1355 1001.98 41.6113C1033.8 44.0359 1072.83 40.3559 1103.19 50.2267C1121.49 56.178 1140.16 68.3584 1158.38 75.3255C1169.83 83.3755 1147.55 85.0142 1142.3 85.6946C1077.29 94.1855 1017.88 95.4984 954.694 75.6609L948.03 73.2555C964.356 75.1338 980.338 80.4717 996.52 83.5096C1037.45 91.1859 1074.31 90.63 1115.57 85.7042C1124.46 84.6405 1133.97 83.5384 1142.62 81.2288C1145.52 80.4525 1149.83 79.9542 1151.38 77.0984C1139.24 79.9446 1127.06 82.4076 1114.63 83.7971C1075.43 88.1767 1041.42 89.2884 1002.43 82.3884C979.727 78.373 957.329 72.2205 934.655 68.0038L923.217 64.6496C969.817 72.345 1016.24 87.4675 1064.08 84.8034C1078.34 84.008 1104.64 80.213 1118.01 75.6992C1121.14 74.645 1122.65 74.3384 1123.7 71.3484C1110.51 75.91 1095.9 78.9959 1082.03 80.7975C1007.5 90.4863 939.887 59.858 868.188 51.348C833.646 47.2463 794.923 49.5463 760.725 43.2596C757.766 42.7134 752.964 42.5121 751.36 39.7426C767.103 35.1713 784.145 36.6184 800.06 32.5551C812.795 29.3063 816.939 23.8534 801.749 19.3396C797.472 18.0651 783.238 16.3496 776.574 14.6342H772.497C773.041 15.0463 773.757 15.4584 774.683 15.8417C779.667 17.9021 808.929 20.7676 809.645 24.9171C809.397 29.6417 799.506 31.0217 795.496 31.8076C785.242 33.8105 774.54 33.6092 764.258 34.9509C759.923 35.5163 751.407 36.005 749.403 40.2025C749.374 44.4 763.064 45.9142 766.282 46.3263C796.46 50.15 827.546 49.6996 857.81 52.2009C873.095 53.4659 888.074 57.5196 903.159 59.8675C903.379 61.583 901.02 60.7971 899.951 60.7013C890.92 59.858 881.115 57.1938 872.016 56.1492C842.086 52.6992 797.644 52.6801 769.27 62.9821C748.782 70.4188 719.606 81.1617 701.801 93.0067C683.165 105.417 676.568 114.655 703.624 121.68C733.812 129.519 770.635 128.149 802.284 132.854C863.701 141.978 924.077 166.089 987.174 160.483C987.078 155.634 977.015 159.352 973.33 159.525C919.313 162.074 857.094 138.959 803.239 130.938C772.659 126.385 739.932 126.97 710.116 120.913C705.629 120.003 685.532 115.805 686.64 109.385C688.158 100.558 721.878 84.0271 730.375 80.4813C763.609 66.6046 786.55 57.5771 823.402 55.9863C833.322 55.555 845.026 55.6221 854.956 56.0246C856.12 56.0725 858.507 55.2963 858.287 56.9734C837.475 57.328 815.583 57.7305 795.267 62.2442C774.015 66.9688 734.748 79.6667 720.79 96.7346C711.911 107.593 717.458 111.138 728.657 114.761C755.427 123.424 794.436 123.75 823.288 128.063C886.194 137.464 946.856 154.388 1011.22 143.894C1028.11 141.144 1044.89 136.41 1062.13 135.576C1085.08 134.474 1115.72 141.153 1137.8 147.775C1156.75 153.458 1175.59 163.138 1194.72 171.868H1199.77C1179.17 162.706 1158.86 152.069 1139.48 146.098L1139.47 146.089ZM881.649 67.5246C890.442 68.5405 900.467 71.2813 909.088 73.5334C928.984 78.7371 951.62 85.8096 970.905 92.9396C974.304 94.1951 985.426 98.1434 987.24 100.51C990.047 104.162 983.803 107.353 981.121 108.886C960.461 120.664 920.353 119.112 896.953 117.348C863.395 114.818 823.393 110.333 790.293 104.622C783.934 103.52 762.482 99.5617 758.902 94.885C756.687 91.9909 762.53 87.1992 764.802 85.34C777.49 74.9613 797.721 72.3834 813.406 69.4605L792.718 76.9546C774.951 85.6946 779.142 90.678 796.05 94.0705C808.9 96.6484 824.519 97.7601 837.761 99.1592C860.693 101.574 910.892 108.263 931.056 100.817C953.224 92.633 920.019 80.3759 911.98 77.3667C901.574 73.4663 890.738 70.3709 879.768 68.4925C878.203 67.1988 880.866 67.4576 881.64 67.5438L881.649 67.5246ZM896.018 74.2138C904.266 76.6863 931.332 85.963 936.297 91.7705C940.335 96.4951 930.855 98.6896 927.819 99.4563C900.677 106.308 826.381 97.8367 796.852 92.3071C783.934 89.8921 775.734 87.1513 792.078 79.1588C822.6 64.2375 864.102 64.64 896.027 74.2138H896.018ZM868.312 64.64C869.515 64.7646 871.606 66.3651 873.563 65.608V66.5471C871.004 67.6109 866.947 65.5984 865.448 65.5984H843.967V64.64C851.795 65.215 860.607 63.8638 868.312 64.64Z" fill="#F5A145" fill-opacity="0.33"/>
<path d="M161.671 62.5701C185.94 58.8613 211.879 51.5109 236.253 50.2267C256.016 49.1821 275.969 51.7792 295.531 51.2713C317.528 50.6963 388.673 46.5084 405.094 36.6663C418.489 28.6355 408.98 24.6105 398.927 22.1571L369.483 16.7426C395.098 18.7167 420.589 22.7801 445.851 27.2842C446.08 28.6546 444.17 28.6259 443.187 28.9038C435.129 31.1559 422.833 31.9992 415.701 34.8646C414.593 35.3055 412.235 36.4171 413.877 37.8259C425.191 34.0117 438.308 33.5134 448.696 27.7538C448.667 23.7192 408.626 20.0009 403.49 19.4834L396.206 17.7009C408.808 18.2855 421.353 20.5663 433.917 21.5151C458.692 23.3838 488.622 25.6167 513.139 23.4317C523.851 22.4734 534.438 19.7517 545.122 18.6592C544.587 20.0871 540.902 20.6046 539.393 21.0359C512.356 28.8463 477.853 35.2863 449.86 39.4551C442.49 40.5476 433.869 42.2438 426.756 40.6913L427.31 43.5759C448.505 42.5792 470.081 37.8642 490.913 33.6955C501.988 31.4817 513.358 29.5842 524.328 26.9871C534.82 24.4955 544.883 20.1351 555.633 18.6496L538.945 25.3676C514.599 34.1651 487.638 35.1905 462.825 41.918C439.664 48.2046 464.658 54.9226 474.282 56.6955C484.984 58.6601 495.963 58.5451 506.456 59.858C545.99 64.7742 579.463 70.6105 619.627 62.2826C628.325 60.4809 645.624 57.2609 636.764 45.483C634.187 46.3359 637.805 49.6421 637.834 51.7026C637.901 56.2834 627.227 58.5163 623.446 59.4076C584.513 68.5405 552.559 63.423 514.093 58.8996C494.216 56.5613 472.22 58.0755 454.453 47.8692C454.453 46.863 460.114 44.6109 461.307 44.2276C480.631 37.9984 504.26 36.8292 524.328 31.7788C535.861 28.8751 546.659 23.978 558.01 20.5376L552.74 23.8821C531.737 34.5005 508.117 35.5355 485.929 41.1513C483.361 41.803 474.358 43.8251 473.623 46.1059C472.688 49.8721 476.277 51.4917 479.275 52.6417C491.524 57.3567 508.461 55.6988 521.731 56.983C534.009 58.1713 546.936 61.8801 558.984 62.7138C572.274 63.6338 609.737 62.9342 620.897 56.8488C629.738 52.0188 621.699 47.0546 623.408 42.5984C623.188 42.9721 621.585 43.068 621.537 44.9176C621.422 48.9713 626.864 51.3384 621.422 54.5009C609.727 61.2955 573.839 61.698 559.929 60.7971C547.184 59.973 534.486 56.2451 521.731 55.0567C508.031 53.7821 489.758 55.6126 477.337 49.7859C476.029 49.1726 473.575 48.5017 475.447 46.9301C481.519 41.8221 506.771 39.4742 515.726 37.5288C533.98 33.5517 550.048 26.623 567.548 20.5471C569.056 21.4959 566.851 21.7355 566.183 22.0326C556.912 26.1726 549.017 30.2167 539.174 33.2738C526.151 37.318 507.095 38.6501 495.897 43.4992C494.14 44.2563 490.197 46.6713 492.622 48.8276C496.727 52.4692 517.311 51.6451 523.631 52.2009C546.363 54.1655 577.925 60.6917 599.769 56.7434C604.677 55.8617 609.803 54.6926 611.942 50.2746C607.588 52.9196 602.987 54.1463 597.984 54.9513C575.854 58.5163 547.251 52.2488 524.576 50.2842C521.454 50.0159 493.519 49.9776 493.577 46.9205C502.885 42.263 513.874 41.6305 523.937 39.0813C530.858 37.3276 538.171 35.6505 544.892 33.2834C555.623 29.5171 566.268 21.7163 576.608 19.1192C583.119 17.4901 589.993 17.1546 596.657 16.7426L585.85 21.6876C582.441 24.6776 574.355 28.9421 575.606 34.3184C576.379 37.6246 590.766 35.1521 593.812 34.4717C597.583 33.6284 619.685 26.6038 621.508 24.898C622.348 24.1121 623.513 21.5151 621.508 21.5342C621.584 22.5692 621.25 23.2401 620.324 23.748C615.264 26.5271 593.306 33.2259 587.501 33.8776C571.825 35.6505 575.882 30.2167 585.277 23.978C596.304 16.6659 607.598 17.6721 620.047 20.5663L619.57 18.6496C623.236 18.6496 641.834 22.7801 642.483 25.8467C642.817 27.428 641.232 27.8209 640.173 28.3001C633.862 31.1942 617.155 32.6988 612.228 37.1551C606.911 41.9659 613.25 47.3709 611.932 50.2651C614.52 44.9367 610.71 43.3651 611.102 41.2951C611.999 36.4938 635.18 31.9417 639.896 29.9388C642.502 28.8367 646.016 27.1213 643.505 23.8438C641.91 21.7642 637.91 21.7738 636.755 19.608C639.638 19.0617 654.579 23.7001 653.921 26.7571C653.205 30.0921 629.556 34.9317 624.277 40.1738C623.542 40.9021 623.694 42.0521 623.379 42.5984C626.234 35.1713 678.027 30.1976 642.894 18.6976L629.108 15.7746C635.256 15.3146 641.347 16.5796 647.257 18.1513C650.455 19.0042 665.549 26.0096 666.332 25.3484C667.993 23.9492 665.072 23.2401 664.547 22.8663C660.632 20.1255 648.507 16.2634 640.316 14.6246H560.101C559.719 14.6917 559.328 14.7588 558.936 14.8355L558.984 14.6246H518.409L511.229 15.8034L440.056 15.2859C447.865 15.1038 455.732 14.8451 463.599 14.6246H411.147C432.733 17.2984 454.624 17.8926 476.344 17.6817C476.564 19.3588 474.177 18.5826 473.012 18.6305C469.212 18.7838 465.365 18.573 461.556 18.6305C459.713 18.6592 457.851 19.6655 455.818 19.6655C445.612 19.6655 420.942 17.9405 399.079 14.6151H331.648C332.488 14.6821 333.309 14.7396 334.092 14.7971L329.815 15.7267C328.125 15.2763 326.388 14.9217 324.64 14.6055H318.043C328.975 16.4071 339.868 17.883 352.575 19.7038C363.287 21.2371 375.651 22.5309 384.701 28.6834C384.768 35.5067 362.504 39.733 357.368 40.538C311.103 47.8021 266.136 41.1226 220.968 46.4126C204.853 48.3005 189.09 52.4213 173.07 54.8746C149.756 58.4301 126.06 59.6567 102.861 63.9405C68.787 70.2559 35.3339 82.6471 0 79.9734V81.8901C36.976 84.6117 71.9376 71.0417 107.682 64.918C129.316 61.2092 151.465 60.203 173.147 56.8392C188.537 54.453 203.631 50.2459 219.116 48.358C267.396 42.4642 318.673 51.9517 366.963 40.5571C387.546 35.6984 395.346 25.3196 368.719 20.8346L335.114 15.7746C346.761 16.2251 359.201 17.1451 370.782 18.7742C380.138 20.0871 394.096 22.1955 402.917 24.8501C405.753 25.703 408.168 27.0542 410.555 28.7121C404.55 38.3626 389.933 41.0363 379.393 42.4738C354.256 45.9046 322.836 48.3867 297.45 49.3451C277.859 50.083 257.896 47.2751 238.172 48.3005C212.7 49.623 186.837 56.7434 161.681 60.6438C142.835 63.5763 123.645 64.7071 104.827 67.7834C79.8999 71.8563 54.7528 80.558 29.9493 83.663C20.0203 84.9184 9.95765 85.0621 0 85.7234V87.6401C40.6707 87.1992 79.0502 73.3992 118.995 67.6492C133.154 65.608 147.503 64.7359 161.671 62.5701ZM462.549 20.5663C490.207 20.5663 517.731 18.9659 545.141 15.7842L529.235 19.4546C506.055 23.978 482.645 22.0996 459.226 21.5151L462.558 20.5663H462.549Z" fill="#F5A145" fill-opacity="0.33"/>
<path d="M1270.72 23.4404C1270.9 25.0888 1267.44 24.4946 1266.4 24.4275C1259 23.9867 1251.03 21.9359 1243.51 21.5238C1233.17 20.9584 1202.19 20.5942 1194.02 25.5009C1187.35 29.5067 1191.65 32.5063 1196.57 35.1034C1201.36 37.6238 1215.93 41.4954 1218.75 44.4663C1220.99 46.8334 1221.11 51.9509 1221.1 55.0559C1222.83 54.5384 1222.2 49.2292 1221.99 47.9259C1221.4 44.2075 1218.75 42.4442 1215.72 40.8054C1212.28 38.9367 1191.64 32.2571 1192.45 28.7209C1195.47 25.9321 1200.5 25.0984 1204.5 24.5042C1223.8 21.6196 1245.04 23.9867 1264.41 25.4625L1288.87 29.1713C1270.87 28.9892 1252.07 24.4754 1234 26.3154C1230.17 26.7084 1220.74 28.4238 1224.93 33.4838C1228.82 38.1796 1249.66 43.7571 1252.15 49.2867C1253.68 52.7175 1243.91 54.385 1241.39 54.8163C1228.83 56.9917 1216.03 55.0463 1203.4 55.9759C1194.79 56.6084 1181.91 59.5984 1196.29 66.0575C1214.56 74.2609 1250.6 76.4267 1269.99 72.0184C1285.31 68.5396 1305.14 62.895 1320.39 58.4004C1354.65 48.3092 1337.52 36.5409 1312.76 34.9117C1312.74 33.1963 1316.92 33.8671 1317.99 33.9821C1326.28 34.8542 1338.02 37.7004 1345.95 40.4221C1350.29 41.9171 1363.94 46.7184 1360.98 53.12C1357.63 60.365 1321.29 66.0479 1312.56 68.7409C1308.43 70.0059 1294.9 73.7817 1297.94 79.9725C1299.56 83.25 1324.64 89.9392 1329.94 91.9613C1342.96 96.935 1354.84 104.602 1367.9 109.432C1390.1 117.654 1415.95 121.373 1439.38 124.89C1478.79 130.793 1518.63 134.09 1558.12 139.389V137.473C1514.56 131.157 1470.45 128.014 1426.97 121.056C1407.09 117.875 1384.75 113.821 1365.97 106.585C1356.13 102.8 1347.18 97.0979 1337.54 92.9484C1324.71 87.4188 1310.89 84.7259 1298.42 78.535C1298.42 75.8038 1306.22 73.1204 1308.44 72.3059C1321.25 67.5717 1336.03 66.4792 1348.83 62.0517C1370.89 54.4234 1364.08 42.7988 1345.22 38.7738C1345.06 36.9625 1348.26 37.8921 1349.26 38.0742C1358.33 39.665 1379.55 47.3509 1384.4 55.5063C1387.42 60.5854 1382.61 61.1892 1378.64 62.2721C1370.74 64.4284 1336.06 68.5588 1332.76 73.9542C1331.81 75.5259 1331.55 77.3084 1332.31 79.0142C1334.03 82.8667 1349.67 87.5817 1354.16 89.7188C1373.5 98.9284 1386.01 107.275 1407.63 112.709C1456.37 124.947 1508.45 127.343 1558.12 134.626V132.71C1505.79 123.931 1448.85 123.385 1397.96 108.042C1381.27 103.011 1369.78 94.6542 1354.46 87.4954C1351.03 85.895 1333.4 80.145 1332.85 77.5096C1332.59 76.2734 1333.95 75.43 1334.78 74.7784C1343.2 68.1275 1383.09 66.2875 1385.8 60.8442C1389.95 52.5546 1374 44.61 1368.11 42.1567C1364.35 40.585 1359.82 39.0613 1355.72 38.7738C1355.56 36.9625 1358.77 37.8921 1359.77 38.0646C1367.09 39.3679 1393.18 45.8271 1396.66 51.8263C1404.13 64.7159 1375.86 65.6359 1373.99 72.0279C1372.58 76.8388 1383.86 81.295 1387.53 83.02C1400.35 89.0479 1417.06 94.6254 1430.65 99.1679C1472.21 113.064 1514.9 118.632 1558.12 125.024V122.149C1519.7 117.664 1480.05 112.498 1443.06 101.085C1426.53 95.9863 1406.06 89.115 1390.41 82.0617C1387.91 80.9309 1375.29 75.3534 1375.82 72.8904C1376.83 68.1371 1396.37 67.3321 1398.48 58.2184C1400.82 48.1079 1391.16 45.9229 1384.08 42.425L1363.37 36.8667C1375.29 37.6142 1387.97 40.2304 1399.66 43.0767C1404.36 44.2171 1423.12 48.4817 1425.01 52.2C1427.16 56.4646 1414.89 59.7613 1413.97 63.6809C1414.68 64.3229 1423.92 58.1225 1424.89 56.9246C1432.34 47.7342 1409.84 43.4504 1404.44 42.1184C1386.88 37.7675 1368.84 35.6113 1350.97 33.0142C1350.81 31.3084 1354.18 31.9984 1355.24 32.075C1360.53 32.4679 1366.32 34.1354 1371.61 34.8159C1373.76 35.0938 1375.91 34.7584 1378.06 35.0459C1416.21 40.1921 1454.07 47.6767 1492.26 52.1904L1473.18 56.4934L1463.62 60.3363C1463.61 62.5404 1466.04 63.3454 1467.64 63.9684C1482.39 69.6992 1535.87 72.7275 1550.72 68.2042C1552.15 67.7729 1553.39 67.3129 1554.32 66.0671C1548.17 66.1629 1541.85 68.07 1535.7 68.4629C1519.95 69.4692 1501.85 67.6675 1486.2 65.4634C1479.27 64.4859 1472.42 62.9909 1465.54 61.7546C1466.12 59.7421 1468.48 59.6942 1470.12 59.1671C1494.89 51.0117 1521.98 54.4809 1546.71 61.2754C1548.77 61.8409 1555.04 65.9425 1554.34 61.7834C1543.9 58.3238 1533.1 55.9279 1522.2 54.2604C1491.75 49.5934 1461.06 45.3 1430.55 40.8438C1401.2 36.5504 1371.68 33.2729 1342.38 28.7113L1347.64 28.2417C1363.81 30.5704 1380.11 33.1963 1396.34 34.9309C1424.01 37.8825 1462.76 42.5113 1489.91 39.7417C1492.5 39.4734 1494.57 38.2946 1497.05 37.7963C1497.18 36.7804 1497.15 35.8317 1496.62 34.9117C1494.63 31.4713 1470.6 27.5325 1465.01 25.4338C1463.82 24.9834 1461.82 24.4084 1463.62 22.9517C1480.33 19.8946 1497.24 19.3579 1514.23 19.6263L1501.11 22.2521L1498.99 23.9292C1503.89 29.9284 1547.18 33.8 1548.6 35.9371C1546.19 42.2238 1554.06 43.0671 1558.16 45.4917V43.575L1549.61 39.6554C1548.86 38.5534 1552.06 36.0138 1547.89 34.2409L1501.82 23.9292L1519.5 21.5429L1558.16 20.575V18.6584L1520.93 19.6071C1521.29 17.8629 1522.8 17.8246 1524.23 17.6617C1534.75 16.4734 1547.39 18.6104 1558.16 17.7V15.7834C1534.77 15.6684 1511.35 15.9175 1487.95 15.8217C1473.44 15.7642 1442.71 12.7071 1430.31 20.1821C1425.7 22.9613 1426.74 24.255 1419.76 25.8842C1403.48 29.6888 1383.34 28.0309 1366.76 26.325C1348.73 24.4659 1326.35 22.0125 1308.79 18.39C1304.22 17.4509 1299.1 16.4159 1294.43 14.6621H1290.31C1303.78 21.8592 1351 26.5167 1367.7 28.2513C1382.1 29.7367 1413.6 32.1804 1426.13 25.5871C1428.76 24.2071 1430.07 21.7921 1433.39 20.4121C1439.53 17.8534 1451.48 17.0579 1458.36 16.7321C1469.61 16.1954 1481.04 17.2017 1492.29 16.78C1489.83 20.3067 1483.42 18.2654 1479.41 18.6967C1475.92 19.0704 1463.62 20.805 1461.36 22.4534C1460.49 23.0859 1460.49 24.1592 1460.82 24.8875C1462.12 27.8871 1488.08 32.6309 1493.05 34.7009C1494.21 35.1896 1495.86 35.2759 1496.11 36.8763C1481.51 38.8696 1466.47 38.5917 1451.73 37.8346C1430.22 36.7325 1408.23 34.4325 1386.81 32.0846C1360.25 29.1713 1329.04 26.1429 1303.06 21.2746C1296.31 20.0096 1286.21 17.4029 1278.77 14.6717H1274.31C1274.71 14.8921 1275.13 15.1029 1275.59 15.3138C1283.65 18.9842 1294.46 21.5525 1303.26 22.53C1303.02 24.4371 1298.53 23.4309 1297.3 23.2296C1287.36 21.6004 1276.48 18.275 1266.23 14.6717H1259.16C1259.84 14.9017 1260.54 15.1221 1261.3 15.285L1292.77 24.4179L1287.96 23.9963C1275.51 19.6646 1261.25 18.1984 1248.44 14.6717H1242.69C1252.29 18.0259 1262.92 19.31 1272.72 21.5717L1269.5 22.4054C1256.65 19.0513 1242.91 19.5304 1230.91 14.6717H1226.61C1226.81 14.7867 1227.01 14.9017 1227.21 15.0071C1240.06 21.84 1256.62 20.9104 1270.8 23.4788L1270.72 23.4404ZM1501.76 17.6809H1519.9V19.5975C1519.53 20.0575 1518.68 18.6392 1518.47 18.6392H1501.76V17.6809ZM1333.73 32.075L1351.86 33.9917C1351.86 35.7263 1347.77 35.0075 1346.62 34.9309C1344 34.7488 1339.98 34.1642 1337.33 33.7138C1336.32 33.5413 1333.54 33.4646 1333.73 32.075ZM1318.63 37.1542C1337.88 41.0929 1349.34 47.1784 1323.22 55.535C1313.45 58.6592 1302.52 60.3746 1292.47 63.0004C1279.67 66.345 1268.59 71.52 1255.01 72.3538C1240.1 73.2738 1207.7 69.8046 1194.34 63.2113C1192.84 62.4734 1191.12 62.0038 1191.48 59.8571C1194.84 59.6463 1198.18 58.2279 1201.52 57.95C1215.65 56.7809 1234.27 59.7709 1247.62 55.3529C1268.38 48.4817 1230.53 35.87 1226.84 32.5159C1225.88 31.6438 1225.32 31.4329 1226.32 30.1392C1230.01 25.3571 1264.03 28.8454 1271.09 29.3054L1277.41 31.1071C1272.2 31.8259 1264.59 30.1296 1259.74 31.1071C1254.05 32.2571 1257.2 36.0713 1260.5 38.0167C1269.21 43.1438 1292.33 47.3509 1272.04 57.8254C1255.9 66.1534 1229.24 69.6609 1212.24 62.6842C1211.36 62.32 1211.82 60.2021 1210.12 60.8346C1209.05 61.2275 1208.36 62.0613 1209.65 63.1921C1212.86 66.0096 1229.18 68.3479 1233.93 68.53C1245.65 68.9709 1266.8 64.3229 1276.39 57.4134C1292.45 45.8559 1266.66 38.9559 1258.31 34.9404C1258.47 33.6467 1259.61 33.2634 1260.74 33.0717C1274.33 30.7813 1304.54 34.2888 1318.63 37.1734V37.1542Z" fill="#F5A145" fill-opacity="0.33"/>
<path d="M1012.35 24.5242C1040.75 28.3288 1065.69 36.5321 1095.49 37.8546C1107.25 38.3721 1133.61 39.5509 1142.73 32.488C1145.72 30.1688 1145.9 27.313 1148.01 25.3292C1155.53 18.2663 1179.26 17.7201 1189.6 15.3242C1190.56 15.1038 1191.42 14.8738 1192.21 14.6342H1183.44C1178.96 15.1326 1174.39 15.2955 1170.26 16.0334C1164.14 17.1259 1152.69 19.4738 1148.02 23.4221C1144.8 26.1438 1144.91 29.8621 1140.59 32.258C1128.45 38.9951 1087.6 35.6217 1072.62 33.9734C1042.3 30.6288 1013.26 20.0201 982.399 20.5567L982.857 18.6592C983.955 19.5888 985.282 19.6271 986.638 19.6655C1027.31 20.7196 1068.26 36.1871 1107.98 33.0534C1123.52 31.8267 1124.45 24.0355 1135.36 20.2884C1145.99 16.6467 1158.97 17.078 1170.16 14.6246H1156.85C1147.76 15.5063 1138.66 16.4167 1131.44 20.1638C1127.22 22.3584 1124.44 26.8817 1119.88 28.6834C1106.66 33.8967 1079.52 30.9355 1065.11 29.0476C1051.84 27.313 1038.76 23.4796 1025.37 22.4542C1026.03 20.7484 1031.03 21.3713 1032.57 21.4671C1054.29 22.7417 1079.91 28.5588 1100.99 23.1442C1107.63 21.4384 1113.32 18.3621 1120.64 16.9917C1123.24 16.5126 1132 15.6309 1140.8 14.6151H1125.39C1120.71 15.2859 1116.06 16.1388 1111.48 17.3751C1108.33 18.2184 1105.13 20.3459 1101.94 21.218C1082.52 26.5751 1060.84 21.6396 1041.1 20.5471C1033.01 20.0967 975.849 18.573 973.806 15.7363C973.52 15.3434 973.596 14.9792 973.844 14.6151H972.985C972.718 15.2571 972.708 15.9663 973.262 16.7617L981.434 19.5696C974.093 19.8571 966.627 18.8413 959.466 17.193C956.373 16.4838 953.509 15.5734 950.74 14.6055H945.289C947.141 15.4488 948.993 16.2826 951.094 16.9726C969.911 23.0867 992.662 21.8601 1012.34 24.4955L1012.35 24.5242Z" fill="#F5A145" fill-opacity="0.33"/>
<path d="M971.457 178.73C981.845 178.03 991.545 175.222 1001.05 171.858H994.905C994.476 171.983 994.056 172.117 993.626 172.232C967.935 179.4 942.224 177.493 916.619 171.858H907.645C928.438 177.024 949.547 180.205 971.457 178.73Z" fill="#F5A145" fill-opacity="0.33"/>
</g>
</g>
<defs>
<clipPath id="clip0_4321_13251">
<rect width="1320" height="184" fill="white"/>
</clipPath>
</defs>
</svg>
